<?xml version="1.0" encoding="UTF-8"?>
<svg xmlns="http://www.w3.org/2000/svg" xmlns:xlink="http://www.w3.org/1999/xlink" width="300px" height="300px" viewBox="0 0 300 300" version="1.1">
<g id="surface1">
<path style=" stroke:none;fill-rule:nonzero;fill:rgb(0%,0%,0%);fill-opacity:1;" d="M 306.824219 143.917969 C 306.636719 244.359375 237.289062 316.925781 156.074219 319.964844 C 114.390625 321.488281 77.476562 307.703125 46.167969 277.804688 C 13.085938 246.183594 -4.953125 206.046875 -7.007812 158.109375 C -9.160156 108.34375 6.074219 65.371094 38.316406 29.898438 C 67.851562 -2.535156 104.113281 -19.15625 146.074219 -20.371094 C 187.664062 -21.488281 223.738281 -6.082031 255.140625 23.210938 C 288.691406 57.566406 306.167969 99.628906 306.824219 143.917969 Z M 52.148438 271.113281 C 52.429688 271.316406 52.710938 271.417969 52.898438 271.621094 C 57.101562 275.574219 61.496094 279.222656 66.167969 282.667969 C 76.261719 290.167969 87.101562 296.25 98.597656 300.8125 C 112.148438 306.285156 126.167969 309.324219 140.652344 310.4375 C 145.886719 310.84375 151.121094 310.84375 156.355469 310.539062 C 163.269531 310.136719 170 309.425781 176.824219 308.007812 C 192.429688 304.863281 207.195312 299.1875 221.027344 290.878906 C 234.859375 282.566406 247.195312 272.230469 258.039062 259.664062 C 263.550781 253.277344 268.503906 246.488281 272.992188 239.289062 C 278.039062 231.082031 282.429688 222.464844 285.980469 213.34375 C 288.785156 206.351562 291.121094 199.15625 292.898438 191.757812 C 294.671875 184.5625 295.980469 177.261719 296.824219 169.761719 C 297.476562 164.1875 297.945312 158.511719 297.945312 152.835938 C 297.945312 147.464844 297.945312 142.195312 297.382812 136.824219 C 297.007812 132.769531 296.730469 128.613281 296.167969 124.5625 C 293.925781 108.648438 289.4375 93.546875 282.992188 79.15625 C 277.570312 67.09375 270.839844 56.046875 262.804688 45.8125 C 256.914062 38.3125 250.46875 31.417969 243.363281 25.136719 C 232.523438 15.609375 220.652344 7.804688 207.757812 1.824219 C 189.4375 -6.6875 170.28125 -10.742188 150.46875 -11.046875 C 145.980469 -11.148438 141.496094 -10.84375 137.007812 -10.4375 C 131.121094 -9.933594 125.328125 -9.019531 119.53125 -7.703125 C 98.128906 -2.738281 78.785156 6.789062 61.214844 20.878906 C 49.8125 30.101562 39.8125 40.84375 31.308594 53.210938 C 21.683594 67.09375 14.207031 82.296875 9.160156 98.816406 C 6.355469 107.835938 4.300781 117.0625 3.085938 126.386719 C 2.148438 133.480469 1.496094 140.574219 1.589844 147.769531 C 1.589844 151.519531 1.589844 155.269531 1.777344 159.019531 C 2.054688 163.582031 2.429688 168.242188 2.992188 172.804688 C 4.113281 181.011719 5.792969 189.121094 8.039062 197.128906 C 11.960938 211.214844 17.757812 224.390625 25.046875 236.757812 C 27.382812 240.710938 29.8125 244.5625 32.523438 248.210938 C 36.074219 252.972656 39.625 257.738281 43.550781 261.992188 C 45.421875 263.917969 47.195312 265.945312 48.972656 267.871094 C 46.355469 267.261719 46.261719 267.363281 45.886719 270.101562 C 45.886719 270.304688 45.886719 270.40625 45.886719 270.609375 C 45.792969 272.027344 47.007812 272.835938 48.222656 272.230469 C 49.160156 271.722656 50.1875 271.417969 51.214844 271.519531 C 51.496094 271.621094 52.054688 271.824219 52.148438 271.113281 Z M 41.027344 263.3125 C 40.375 262.5 40.375 261.6875 40.28125 260.777344 C 40.1875 259.964844 40.375 259.054688 39.8125 258.34375 C 38.878906 257.128906 37.851562 256.011719 36.914062 254.796875 C 36.730469 254.59375 36.449219 254.289062 36.167969 254.59375 C 35.515625 255.304688 34.671875 255.914062 34.484375 257.230469 C 34.207031 259.054688 34.578125 260.878906 34.113281 262.703125 C 34.019531 263.210938 34.300781 263.414062 34.671875 263.414062 C 36.636719 263.613281 38.691406 263.714844 41.027344 263.3125 Z M 28.222656 257.230469 C 28.691406 256.113281 28.691406 255.101562 28.503906 254.085938 C 28.128906 252.464844 27.101562 251.65625 25.699219 251.859375 C 25.140625 251.960938 24.765625 252.164062 25.234375 252.769531 C 26.167969 254.289062 27.195312 255.8125 28.222656 257.230469 Z M 25.234375 238.277344 C 25.140625 238.074219 25.046875 237.667969 24.859375 237.363281 C 23.925781 235.84375 23.457031 234.019531 22.148438 232.703125 C 21.871094 232.398438 21.871094 231.585938 21.214844 231.992188 C 20.652344 232.398438 20.28125 232.90625 20.652344 233.714844 C 20.933594 234.425781 21.402344 234.933594 22.054688 235.238281 C 23.269531 236.046875 24.113281 236.960938 24.300781 238.480469 C 24.300781 238.785156 24.484375 239.1875 24.859375 239.085938 C 25.328125 239.1875 25.234375 238.785156 25.234375 238.277344 Z M 114.019531 306.386719 C 112.429688 305.878906 110.839844 305.472656 109.253906 304.964844 C 108.597656 304.761719 108.597656 305.371094 108.503906 305.777344 C 108.316406 306.285156 108.410156 306.6875 108.878906 306.789062 C 109.53125 306.992188 110.28125 307.09375 110.933594 307.398438 C 112.335938 308.007812 112.992188 307.804688 114.019531 306.386719 Z M 30.46875 247.5 C 30.46875 247.5 30.839844 247.5 30.933594 247.296875 C 31.214844 246.992188 30.839844 246.6875 30.652344 246.488281 C 30.1875 245.777344 29.71875 245.066406 29.253906 244.359375 C 29.066406 244.054688 28.785156 243.648438 28.503906 243.75 C 28.039062 243.953125 28.410156 244.359375 28.503906 244.664062 C 28.597656 245.167969 28.691406 245.574219 28.691406 246.082031 C 28.878906 247.09375 29.4375 247.5 30.46875 247.5 Z M 28.878906 48.953125 C 28.503906 49.863281 27.476562 50.574219 27.851562 51.285156 C 28.410156 52.195312 28.878906 53.109375 29.8125 54.121094 C 30 52.09375 29.53125 50.675781 28.878906 48.953125 Z M 28.878906 48.953125 "/>
<path style=" stroke:none;fill-rule:nonzero;fill:rgb(0%,0%,0%);fill-opacity:1;" d="M 285.699219 147.566406 C 285.699219 165.609375 282.148438 184.664062 274.859375 202.90625 C 274.207031 204.527344 274.019531 204.628906 272.992188 203.109375 C 267.851562 195.507812 262.054688 188.511719 255.699219 182.128906 C 244.953125 171.285156 232.992188 162.363281 219.71875 155.574219 C 207.101562 149.085938 194.019531 144.730469 180.1875 142.398438 C 173.269531 141.285156 166.449219 140.574219 159.4375 140.472656 C 158.597656 140.472656 158.316406 140.269531 158.222656 139.257812 C 157.851562 133.175781 158.128906 126.992188 158.410156 120.914062 C 158.691406 116.25 159.066406 111.585938 159.71875 107.027344 C 160.5625 101.046875 161.777344 95.167969 163.457031 89.390625 C 167.101562 76.824219 172.242188 65.066406 178.691406 53.917969 C 182.617188 47.128906 187.195312 40.84375 192.148438 34.863281 C 195.328125 31.113281 198.691406 27.464844 202.242188 24.121094 C 204.859375 21.6875 207.664062 19.460938 210.375 17.128906 C 210.746094 16.824219 211.121094 16.621094 211.589844 17.027344 C 215.046875 19.5625 219.066406 20.980469 222.617188 23.210938 C 228.503906 26.859375 233.832031 31.316406 238.972656 36.183594 C 243.085938 40.035156 247.101562 44.085938 250.746094 48.546875 C 255.792969 54.628906 260.375 61.011719 264.484375 67.90625 C 269.347656 76.214844 273.457031 84.933594 276.730469 94.054688 C 280 103.175781 282.335938 112.5 283.738281 122.128906 C 285.140625 129.933594 285.699219 137.835938 285.699219 147.566406 Z M 285.699219 147.566406 "/>
</g>
</svg>
