<?xml version="1.0" encoding="UTF-8"?>
<svg xmlns="http://www.w3.org/2000/svg" xmlns:xlink="http://www.w3.org/1999/xlink" width="300px" height="300px" viewBox="0 0 300 300" version="1.1">
<g id="surface1">
<path style=" stroke:none;fill-rule:nonzero;fill:rgb(0%,0%,0%);fill-opacity:1;" d="M -7.382812 158.816406 C -7.382812 56.65625 62.617188 -19.15625 148.785156 -19.664062 C 236.167969 -20.167969 308.222656 56.65625 306.730469 153.648438 C 306.074219 197.433594 291.777344 235.742188 263.925781 267.464844 C 232.429688 303.445312 193.269531 321.488281 147.570312 320.878906 C 104.859375 320.269531 68.128906 303.242188 38.039062 270.304688 C 7.851562 237.164062 -6.730469 196.925781 -7.382812 158.816406 Z M 80.652344 8.109375 C 80.46875 8.511719 80.09375 8.714844 79.71875 8.917969 C 78.316406 9.730469 76.914062 10.539062 75.515625 11.453125 C 62.335938 19.863281 50.5625 30 40.1875 42.261719 C 34.859375 48.75 29.90625 55.640625 25.515625 62.9375 C 17.945312 75.40625 12.148438 88.785156 8.039062 102.972656 C 4.300781 116.148438 2.054688 129.527344 1.496094 143.3125 C 1.214844 150.101562 1.308594 156.992188 1.871094 163.785156 C 2.429688 171.386719 3.550781 178.988281 5.046875 186.488281 C 7.382812 197.535156 10.746094 208.175781 15.140625 218.414062 C 18.972656 227.433594 23.644531 235.84375 28.878906 243.953125 C 32.429688 249.324219 36.167969 254.59375 40.375 259.359375 C 44.113281 263.714844 48.039062 267.871094 52.148438 271.824219 C 56.636719 275.980469 61.214844 279.933594 66.074219 283.480469 C 73.363281 288.851562 81.121094 293.511719 89.160156 297.464844 C 96.914062 301.214844 105.046875 304.257812 113.269531 306.488281 C 119.253906 308.109375 125.328125 309.324219 131.496094 310.136719 C 135.699219 310.742188 139.8125 311.148438 144.019531 311.25 C 150.5625 311.453125 157.101562 311.351562 163.550781 310.640625 C 167.664062 310.136719 171.871094 309.628906 175.886719 308.816406 C 186.167969 306.6875 196.167969 303.648438 205.792969 299.289062 C 214.484375 295.335938 222.804688 290.675781 230.652344 285.101562 C 238.222656 279.730469 245.328125 273.648438 251.871094 266.757812 C 254.300781 264.222656 256.636719 261.6875 258.972656 258.953125 C 261.683594 255.609375 264.390625 252.261719 266.914062 248.816406 C 271.871094 241.925781 276.261719 234.628906 280 226.925781 C 284.019531 218.816406 287.382812 210.507812 290.09375 201.789062 C 292.429688 194.085938 294.300781 186.285156 295.515625 178.378906 C 296.636719 171.488281 297.382812 164.492188 297.664062 157.5 C 297.945312 150.101562 297.851562 142.703125 297.101562 135.304688 C 296.636719 130.335938 296.074219 125.472656 295.234375 120.609375 C 293.550781 111.386719 291.214844 102.363281 288.128906 93.546875 C 284.390625 83.109375 279.90625 73.074219 274.207031 63.75 C 271.121094 58.683594 267.945312 53.714844 264.390625 49.054688 C 261.214844 44.796875 257.851562 40.742188 254.300781 36.992188 C 251.960938 34.460938 249.4375 31.925781 246.914062 29.59375 C 242.804688 25.742188 238.503906 22.09375 234.113281 18.75 C 227.101562 13.277344 219.625 8.613281 211.777344 4.664062 C 207.570312 2.535156 203.269531 0.609375 198.878906 -1.011719 C 191.589844 -3.75 184.207031 -5.878906 176.730469 -7.398438 C 170 -8.714844 163.269531 -9.628906 156.542969 -9.933594 C 151.308594 -10.136719 146.074219 -10.136719 140.839844 -9.832031 C 134.578125 -9.425781 128.316406 -8.613281 122.054688 -7.296875 C 111.308594 -5.066406 100.839844 -1.722656 90.839844 3.140625 C 88.597656 4.15625 86.355469 5.269531 84.207031 6.285156 C 84.859375 5.472656 85.980469 5.167969 86.824219 4.664062 C 87.289062 4.359375 87.757812 4.054688 87.570312 3.34375 C 87.382812 2.636719 86.914062 2.332031 86.167969 2.332031 C 85.140625 2.332031 84.484375 2.9375 84.207031 3.851562 C 83.832031 5.167969 82.992188 5.878906 81.871094 6.285156 C 81.121094 6.585938 80.46875 7.09375 80.652344 8.109375 Z M -2.335938 169.359375 C -2.335938 171.992188 -2.710938 172.601562 -4.859375 173.210938 C -5.140625 173.3125 -5.421875 173.3125 -5.609375 173.714844 C -5.792969 174.628906 -5.140625 175.945312 -4.300781 176.148438 C -3.363281 176.453125 -2.429688 175.84375 -2.148438 174.933594 C -1.871094 174.121094 -1.960938 173.3125 -1.960938 172.5 C -1.871094 170.777344 -1.308594 170.066406 0.28125 169.863281 C 0.839844 169.761719 1.777344 169.964844 1.871094 169.257812 C 1.960938 168.546875 1.121094 168.140625 0.5625 167.738281 C 0.375 167.636719 0.09375 167.535156 -0.1875 167.433594 C -0.652344 167.230469 -1.121094 166.925781 -1.214844 166.417969 C -1.496094 165.507812 -2.054688 165.203125 -2.898438 165.101562 C -3.363281 165.101562 -3.832031 164.898438 -4.300781 164.898438 C -4.765625 164.796875 -5.515625 164.492188 -5.609375 165.203125 C -5.699219 165.914062 -4.953125 165.8125 -4.484375 165.8125 C -3.175781 166.011719 -2.617188 166.824219 -2.429688 168.140625 C -2.429688 168.648438 -2.335938 169.15625 -2.335938 169.359375 Z M 283.738281 71.859375 C 282.898438 71.859375 282.054688 71.859375 281.121094 71.859375 C 280.09375 71.859375 279.8125 72.363281 280.28125 73.277344 C 280.933594 74.59375 281.871094 75.609375 282.523438 77.027344 C 282.898438 77.835938 283.644531 77.636719 284.019531 76.519531 C 284.484375 75.101562 285.328125 74.1875 286.636719 73.683594 C 287.101562 73.480469 287.570312 73.277344 287.476562 72.667969 C 287.382812 72.0625 286.914062 71.757812 286.355469 71.757812 C 285.421875 71.859375 284.578125 71.859375 283.738281 71.859375 Z M 2.804688 197.128906 C 1.960938 197.027344 1.496094 197.433594 1.308594 198.242188 C 1.214844 198.648438 1.027344 199.15625 0.652344 199.359375 C -0.28125 199.863281 -0.28125 200.574219 0.09375 201.488281 C 0.28125 201.992188 0.375 202.5 0.46875 203.007812 C 0.5625 203.3125 0.5625 203.917969 1.027344 204.019531 C 1.402344 204.019531 1.683594 203.613281 1.777344 203.210938 C 2.242188 201.890625 3.085938 200.878906 4.390625 200.371094 C 4.953125 200.167969 5.328125 199.664062 5.699219 199.054688 C 6.074219 198.34375 6.074219 197.835938 5.234375 197.636719 C 4.390625 197.433594 3.550781 197.332031 2.804688 197.128906 Z M 267.476562 50.371094 C 267.476562 50.878906 267.476562 51.386719 267.476562 51.789062 C 267.570312 52.703125 268.039062 53.511719 268.972656 53.613281 C 269.8125 53.714844 270.652344 53.613281 271.496094 53.613281 C 272.054688 53.613281 272.523438 53.3125 272.617188 52.703125 C 272.710938 52.09375 272.242188 51.890625 271.777344 51.6875 C 271.214844 51.386719 270.652344 51.183594 270.1875 50.777344 C 269.625 50.269531 269.253906 49.5625 269.066406 48.75 C 268.878906 48.242188 268.597656 47.738281 268.039062 47.835938 C 267.570312 47.9375 267.382812 48.445312 267.382812 48.953125 C 267.476562 49.460938 267.476562 49.863281 267.476562 50.371094 Z M 255.886719 274.257812 C 256.542969 274.257812 257.101562 274.15625 257.570312 273.75 C 258.785156 272.738281 259.71875 271.519531 260.839844 270.40625 C 261.027344 270.203125 261.121094 269.898438 260.933594 269.695312 C 260.375 268.886719 259.625 268.683594 258.785156 268.683594 C 257.945312 268.785156 258.222656 269.59375 258.039062 270.101562 C 257.945312 270.304688 257.945312 270.507812 257.945312 270.710938 C 257.664062 272.636719 257.289062 272.9375 255.515625 273.140625 C 255.140625 273.140625 254.484375 273.039062 254.484375 273.546875 C 254.484375 274.054688 255.046875 274.054688 255.421875 274.257812 C 255.515625 274.257812 255.699219 274.257812 255.886719 274.257812 Z M -2.242188 190.238281 C -1.777344 189.628906 -1.871094 189.324219 -1.871094 189.019531 C -1.777344 186.6875 -1.214844 186.183594 0.839844 185.980469 C 1.027344 185.980469 1.121094 185.980469 1.308594 185.980469 C 2.054688 185.878906 2.148438 185.472656 1.683594 184.863281 C 1.121094 184.257812 0.5625 183.648438 -0.28125 183.851562 C -1.308594 184.15625 -1.960938 184.761719 -2.148438 185.878906 C -2.523438 187.195312 -2.429688 188.613281 -2.242188 190.238281 Z M 70.746094 9.324219 C 72.242188 9.324219 72.710938 9.019531 72.710938 8.007812 C 72.710938 6.992188 71.960938 6.183594 70.933594 6.183594 C 69.8125 6.183594 69.253906 6.789062 69.160156 8.007812 C 69.160156 9.425781 70.09375 9.324219 70.746094 9.324219 Z M 248.410156 281.148438 C 249.066406 281.554688 249.4375 281.65625 249.90625 281.25 C 250.839844 280.4375 251.777344 279.527344 252.710938 278.714844 C 252.992188 278.414062 253.457031 278.210938 253.269531 277.703125 C 253.085938 277.195312 252.617188 276.890625 252.054688 276.789062 C 251.121094 276.6875 250.652344 276.890625 250.5625 278.007812 C 250.375 279.324219 250.46875 281.046875 248.410156 281.148438 Z M 3.457031 179.390625 C 3.085938 178.785156 3.738281 177.363281 2.429688 177.261719 C 1.960938 177.261719 1.402344 177.261719 1.402344 178.074219 C 1.402344 178.683594 2.710938 180.203125 3.175781 180.304688 C 3.738281 180.203125 3.457031 179.796875 3.457031 179.390625 Z M 3.457031 179.390625 "/>
<path style=" stroke:none;fill-rule:nonzero;fill:rgb(0%,0%,0%);fill-opacity:1;" d="M 154.859375 139.054688 C 154.671875 124.359375 156.449219 109.863281 160.375 95.777344 C 162.148438 89.289062 164.671875 83.007812 167.382812 76.824219 C 171.402344 67.601562 176.167969 58.785156 181.960938 50.675781 C 186.542969 44.289062 191.683594 38.414062 197.007812 32.9375 C 199.53125 30.304688 202.617188 28.480469 205.140625 25.84375 C 205.792969 25.238281 206.449219 24.730469 207.101562 24.019531 C 207.757812 23.3125 208.410156 23.3125 209.253906 23.816406 C 215.046875 27.0625 220.652344 30.609375 225.980469 34.761719 C 232.898438 40.035156 239.347656 46.011719 245.140625 52.601562 C 253.363281 61.824219 260.28125 72.0625 265.980469 83.3125 C 270 91.316406 273.363281 99.730469 275.980469 108.34375 C 278.410156 116.351562 280.09375 124.460938 281.121094 132.871094 C 282.054688 140.574219 282.523438 148.378906 282.335938 156.082031 C 281.960938 172.601562 279.160156 188.613281 273.738281 204.019531 C 272.992188 206.148438 272.148438 208.277344 271.402344 210.304688 C 271.027344 211.214844 270.746094 211.316406 270.09375 210.507812 C 267.945312 207.363281 265.699219 204.222656 263.269531 201.285156 C 260.09375 197.332031 256.730469 193.480469 253.175781 189.933594 C 248.691406 185.472656 244.113281 181.214844 239.253906 177.363281 C 230.09375 170.066406 220.28125 164.085938 209.71875 159.324219 C 199.625 154.761719 189.160156 151.519531 178.410156 149.59375 C 171.214844 148.277344 163.925781 147.566406 156.542969 147.464844 C 154.953125 147.464844 154.859375 147.464844 154.765625 145.640625 C 154.859375 143.511719 154.859375 141.285156 154.859375 139.054688 Z M 246.824219 174.019531 C 246.261719 174.019531 245.609375 174.019531 245.515625 174.832031 C 245.421875 175.945312 245.234375 177.164062 245.515625 178.378906 C 245.699219 179.1875 246.167969 180 247.007812 179.898438 C 247.757812 179.898438 248.128906 179.085938 248.316406 178.277344 C 248.410156 177.972656 248.316406 177.667969 248.316406 177.464844 C 248.316406 176.757812 248.128906 176.148438 248.128906 175.4375 C 248.222656 174.425781 247.757812 174.019531 246.824219 174.019531 Z M 189.625 79.054688 C 189.625 77.433594 189.4375 77.230469 188.410156 77.230469 C 187.289062 77.230469 187.382812 77.9375 187.382812 78.75 C 187.382812 80.269531 187.664062 80.472656 188.878906 80.472656 C 190.09375 80.472656 189.53125 79.5625 189.625 79.054688 Z M 204.671875 48.039062 C 204.671875 46.925781 204.671875 46.214844 203.738281 46.316406 C 203.085938 46.417969 202.335938 46.316406 202.148438 47.230469 C 202.054688 47.9375 203.269531 49.15625 203.925781 49.15625 C 204.671875 49.054688 204.671875 48.34375 204.671875 48.039062 Z M 204.671875 71.757812 C 204.484375 71.25 204.953125 70.4375 204.019531 70.335938 C 203.363281 70.335938 202.804688 70.640625 202.898438 71.453125 C 202.992188 72.164062 202.804688 73.175781 203.832031 73.175781 C 204.765625 73.277344 204.671875 72.464844 204.671875 71.757812 Z M 204.671875 71.757812 "/>
<path style=" stroke:none;fill-rule:nonzero;fill:rgb(0%,0%,0%);fill-opacity:1;" d="M 150 296.960938 C 137.664062 297.164062 126.261719 295.4375 115.046875 292.296875 C 101.777344 288.445312 89.347656 282.566406 77.757812 274.5625 C 71.121094 269.898438 64.859375 264.730469 59.066406 258.953125 C 54.019531 253.988281 49.4375 248.511719 45.046875 242.738281 C 44.953125 242.535156 44.859375 242.433594 44.765625 242.230469 C 44.019531 241.214844 44.113281 241.011719 45.234375 240.8125 C 49.160156 240 52.992188 239.289062 56.914062 238.480469 C 68.128906 236.046875 79.066406 232.90625 89.625 228.140625 C 97.101562 224.695312 103.832031 219.933594 110.28125 214.5625 C 115.328125 210.304688 120.09375 205.742188 124.484375 200.878906 C 132.710938 191.757812 139.8125 181.722656 145.792969 170.777344 C 147.570312 167.535156 149.253906 164.1875 150.746094 160.84375 C 151.121094 159.933594 151.496094 159.832031 152.335938 160.238281 C 161.683594 165.710938 170.46875 171.992188 178.597656 179.492188 C 186.167969 186.488281 192.804688 194.492188 198.597656 203.3125 C 202.898438 210 206.914062 216.890625 210.1875 224.1875 C 215.046875 234.933594 218.503906 246.183594 220.746094 257.9375 C 221.683594 262.601562 221.871094 267.464844 222.710938 272.230469 C 222.804688 272.9375 222.429688 273.242188 221.960938 273.546875 C 218.972656 275.777344 215.886719 277.703125 212.804688 279.628906 C 205.609375 283.886719 198.128906 287.332031 190.375 290.066406 C 182.148438 293.007812 173.644531 295.035156 165.046875 296.046875 C 159.90625 296.65625 154.671875 297.0625 150 296.960938 Z M 112.617188 227.332031 C 112.710938 227.332031 112.898438 227.230469 112.992188 227.230469 C 112.992188 226.417969 113.085938 225.609375 113.085938 224.898438 C 113.085938 224.289062 113.363281 223.886719 113.925781 223.886719 C 115.140625 223.988281 115.421875 223.277344 115.328125 222.164062 C 115.234375 221.65625 115.328125 220.742188 114.671875 220.84375 C 113.550781 220.945312 112.523438 219.527344 111.496094 220.640625 C 110.746094 221.453125 110.46875 222.769531 111.027344 223.683594 C 111.777344 224.898438 112.429688 226.011719 112.617188 227.332031 Z M 151.308594 280.335938 C 151.402344 280.335938 151.683594 280.335938 151.960938 280.238281 C 152.992188 280.035156 153.175781 279.121094 153.269531 278.3125 C 153.363281 277.5 152.523438 277.90625 152.148438 277.804688 C 151.589844 277.601562 150.933594 277.5 150.28125 277.296875 C 150 277.195312 149.71875 277.09375 149.53125 277.5 C 148.972656 279.019531 149.71875 280.335938 151.308594 280.335938 Z M 151.308594 280.335938 "/>
</g>
</svg>
