<?xml version="1.0" encoding="UTF-8"?>
<svg xmlns="http://www.w3.org/2000/svg" xmlns:xlink="http://www.w3.org/1999/xlink" width="300px" height="300px" viewBox="0 0 300 300" version="1.1">
<g id="surface1">
<path style=" stroke:none;fill-rule:nonzero;fill:rgb(0%,0%,0%);fill-opacity:1;" d="M 148.222656 -20.066406 C 191.214844 -19.5625 227.101562 -4.863281 256.914062 25.4375 C 291.960938 61.011719 308.785156 105.304688 307.101562 157.195312 C 305.699219 200.066406 291.027344 237.363281 263.550781 268.175781 C 231.402344 304.257812 191.871094 321.6875 145.699219 320.472656 C 107.289062 319.460938 73.457031 304.664062 45.046875 276.6875 C 13.550781 245.574219 -3.832031 206.757812 -6.355469 160.742188 C -9.066406 112.09375 5.046875 69.324219 35.886719 33.75 C 66.824219 -1.925781 105.328125 -19.257812 148.222656 -20.066406 Z M 155.980469 -10.539062 C 68.316406 -10.335938 1.683594 61.417969 2.054688 151.214844 C 2.242188 193.988281 16.355469 231.183594 43.738281 261.890625 C 72.523438 294.121094 108.039062 310.84375 149.4375 310.945312 C 194.578125 311.148438 232.617188 292.296875 262.335938 255.304688 C 288.316406 222.972656 300.375 184.863281 298.316406 141.992188 C 296.261719 98.613281 280.28125 61.824219 250.933594 32.332031 C 222.617188 3.953125 188.785156 -9.933594 155.980469 -10.539062 Z M 3.644531 206.859375 C 4.578125 207.0625 4.953125 206.554688 4.859375 205.539062 C 4.765625 204.527344 4.953125 203.414062 5.140625 202.398438 C 5.421875 200.878906 5.886719 200.371094 7.476562 200.269531 C 7.945312 200.269531 8.597656 200.371094 8.691406 199.761719 C 8.878906 199.15625 8.597656 198.546875 8.222656 198.039062 C 7.945312 197.636719 7.570312 197.535156 7.195312 197.433594 C 6.355469 197.027344 5.515625 196.621094 5.140625 195.609375 C 4.859375 194.796875 4.300781 194.492188 3.457031 194.289062 C 2.898438 194.1875 2.335938 193.988281 1.683594 193.785156 C 0.839844 193.582031 0.375 192.972656 0.1875 192.0625 C -0.09375 190.640625 -0.28125 189.222656 -0.375 187.703125 C -0.375 187.296875 -0.1875 186.585938 -0.746094 186.488281 C -1.214844 186.386719 -1.683594 186.6875 -1.960938 187.195312 C -2.242188 187.601562 -2.523438 188.007812 -2.335938 188.613281 C -2.054688 189.933594 -1.777344 191.25 -1.496094 192.464844 C -1.308594 193.378906 -1.121094 194.390625 -0.375 195.101562 C 0.1875 195.710938 0.5625 196.214844 -0.09375 197.027344 C -0.375 197.332031 -0.1875 197.835938 0 198.140625 C 0.746094 200.675781 1.496094 203.109375 2.242188 205.640625 C 2.429688 206.65625 2.804688 206.960938 3.644531 206.859375 Z M 262.148438 263.007812 C 263.085938 262.804688 264.207031 262.90625 264.765625 262.09375 C 265.980469 260.167969 267.664062 258.953125 269.066406 257.332031 C 269.160156 257.230469 269.253906 257.128906 269.253906 257.027344 C 269.8125 255.8125 270.5625 255.101562 271.683594 254.492188 C 272.992188 253.785156 273.269531 252.566406 272.429688 251.554688 C 271.121094 249.933594 269.160156 250.136719 267.945312 251.960938 C 266.449219 254.1875 264.113281 255.507812 262.804688 257.9375 C 262.710938 258.140625 262.429688 258.242188 262.242188 258.34375 C 261.589844 258.648438 261.214844 259.257812 260.746094 259.761719 C 260.28125 260.269531 260.09375 260.980469 260.375 261.6875 C 260.746094 262.398438 261.308594 263.007812 262.148438 263.007812 Z M 1.683594 151.519531 C 1.683594 150.40625 1.683594 149.289062 1.683594 148.277344 C 1.683594 147.667969 1.589844 147.261719 1.027344 147.0625 C 0.1875 146.757812 -0.746094 146.757812 -1.589844 147.0625 C -2.335938 147.363281 -2.617188 147.871094 -2.054688 148.683594 C -1.589844 149.390625 -1.027344 149.898438 -0.1875 150.203125 C 0.28125 150.40625 0.746094 150.609375 1.027344 151.214844 C 1.777344 152.738281 1.402344 153.546875 -0.1875 154.054688 C -1.121094 154.359375 -2.054688 154.761719 -2.242188 155.980469 C -2.335938 156.890625 -0.839844 158.109375 0.1875 158.007812 C 1.308594 157.90625 2.054688 157.09375 1.871094 155.878906 C 1.589844 154.460938 1.683594 152.9375 1.683594 151.519531 Z M 280.839844 238.785156 C 282.242188 238.785156 283.363281 238.277344 283.925781 237.261719 C 284.207031 236.859375 284.300781 236.453125 284.019531 236.046875 C 283.085938 234.222656 280.839844 233.816406 279.53125 235.335938 C 278.972656 235.945312 278.503906 236.554688 278.878906 237.464844 C 279.253906 238.277344 279.90625 238.886719 280.839844 238.785156 Z M 254.953125 271.113281 C 255.046875 271.113281 255.421875 271.011719 255.699219 271.011719 C 257.289062 270.710938 258.222656 269.59375 258.039062 268.480469 C 257.851562 267.261719 256.261719 266.453125 254.859375 266.859375 C 254.765625 266.859375 254.671875 266.960938 254.578125 266.960938 C 253.644531 267.363281 252.710938 268.582031 252.898438 269.390625 C 252.992188 270.40625 253.832031 271.113281 254.953125 271.113281 Z M 19.347656 241.621094 C 20.746094 242.433594 21.121094 243.039062 20.652344 244.5625 C 20.375 245.574219 20.839844 246.183594 21.402344 246.789062 C 21.960938 247.296875 22.617188 246.992188 23.085938 246.6875 C 23.738281 246.183594 24.207031 245.574219 24.113281 244.5625 C 24.019531 243.953125 23.925781 243.34375 23.925781 242.738281 C 23.925781 242.027344 23.832031 241.519531 22.898438 241.621094 C 22.523438 241.722656 21.960938 241.621094 21.683594 241.316406 C 20.839844 240.304688 20.1875 241.011719 19.347656 241.621094 Z M 34.671875 38.511719 C 34.765625 38.511719 34.953125 38.414062 35.046875 38.3125 C 36.542969 36.890625 37.945312 35.371094 39.160156 33.648438 C 39.53125 33.140625 39.253906 32.738281 38.785156 32.332031 C 38.316406 31.925781 37.945312 31.824219 37.476562 32.332031 C 36.261719 33.75 34.859375 35.066406 33.738281 36.6875 C 33.550781 36.992188 32.992188 37.195312 33.269531 37.703125 C 33.644531 38.109375 34.113281 38.414062 34.671875 38.511719 Z M 40.746094 267.164062 C 41.683594 267.0625 42.054688 266.554688 42.054688 265.640625 C 42.054688 264.730469 41.871094 263.714844 42.710938 263.007812 C 42.898438 262.90625 43.269531 262.804688 43.175781 262.398438 C 43.085938 261.992188 42.710938 262.09375 42.429688 262.09375 C 41.308594 262.5 40.28125 263.007812 39.53125 264.019531 C 39.066406 264.628906 39.066406 265.335938 39.4375 266.046875 C 39.71875 266.757812 40.1875 267.0625 40.746094 267.164062 Z M 109.53125 -13.886719 C 107.476562 -13.277344 105.234375 -12.464844 102.992188 -11.757812 C 102.804688 -11.65625 102.617188 -11.554688 102.710938 -11.25 C 102.898438 -10.945312 103.175781 -10.945312 103.363281 -11.046875 C 104.671875 -11.453125 106.074219 -11.453125 107.476562 -11.554688 C 108.410156 -11.65625 109.160156 -12.164062 110 -12.566406 C 110.28125 -12.667969 110.5625 -12.972656 110.46875 -13.480469 C 110.375 -13.785156 110.09375 -13.886719 109.53125 -13.886719 Z M -6.261719 151.113281 C -6.261719 153.34375 -6.261719 155.269531 -6.261719 157.398438 C -4.953125 156.183594 -4.859375 152.535156 -6.261719 151.113281 Z M 79.53125 7.195312 C 79.625 7.601562 79.4375 8.109375 79.90625 8.109375 C 80.375 8.109375 80.746094 7.90625 80.839844 7.398438 C 80.933594 6.285156 81.027344 5.167969 81.121094 4.054688 C 81.121094 3.546875 80.839844 3.34375 80.375 3.34375 C 79.8125 3.34375 79.8125 3.75 79.8125 4.15625 C 79.71875 5.167969 79.71875 6.183594 79.53125 7.195312 Z M 282.242188 72.871094 C 282.242188 73.683594 282.523438 74.1875 283.269531 74.1875 C 283.925781 74.1875 284.671875 73.277344 284.578125 72.566406 C 284.484375 71.859375 284.019531 71.351562 283.363281 71.351562 C 282.617188 71.453125 282.335938 72.164062 282.242188 72.871094 Z M 270.933594 42.0625 C 270.839844 43.582031 270.652344 44.796875 271.777344 45.710938 C 272.148438 46.011719 272.523438 46.011719 272.898438 45.609375 C 273.269531 45.304688 273.269531 44.898438 272.992188 44.59375 C 272.335938 43.785156 271.871094 42.972656 270.933594 42.0625 Z M 287.195312 82.296875 C 287.851562 82.09375 288.316406 81.6875 288.222656 80.980469 C 288.128906 80.269531 287.757812 79.664062 287.007812 79.5625 C 286.355469 79.5625 285.886719 80.066406 285.886719 80.777344 C 285.980469 81.585938 286.449219 82.09375 287.195312 82.296875 Z M 287.195312 82.296875 "/>
<path style=" stroke:none;fill-rule:nonzero;fill:rgb(0%,0%,0%);fill-opacity:1;" d="M 18.039062 150.304688 C 17.851562 137.433594 19.253906 125.472656 22.054688 113.714844 C 23.925781 105.710938 26.449219 98.007812 29.53125 90.507812 C 34.300781 79.054688 40.28125 68.414062 47.664062 58.683594 C 50.839844 54.527344 54.113281 50.472656 57.664062 46.722656 C 62.992188 41.148438 68.691406 35.980469 74.765625 31.316406 C 81.121094 26.453125 87.851562 22.296875 94.953125 18.75 C 104.859375 13.683594 115.234375 10.136719 125.980469 8.007812 C 129.253906 7.398438 132.617188 6.890625 135.886719 6.285156 C 136.914062 6.082031 137.195312 6.488281 136.824219 7.5 C 136.167969 9.121094 135.609375 10.84375 134.765625 12.363281 C 134.390625 13.074219 134.019531 13.785156 133.832031 14.492188 C 131.214844 22.804688 128.691406 31.011719 127.195312 39.628906 C 126.355469 44.59375 125.609375 49.5625 125.234375 54.628906 C 124.859375 59.59375 124.484375 64.664062 124.578125 69.628906 C 124.765625 74.59375 124.953125 79.664062 125.421875 84.628906 C 125.980469 91.824219 127.195312 98.816406 128.878906 105.710938 C 131.027344 114.933594 134.113281 123.851562 137.851562 132.464844 C 140.09375 137.636719 142.523438 142.703125 145.234375 147.667969 C 145.699219 148.582031 145.699219 149.289062 144.859375 149.898438 C 139.8125 153.953125 134.671875 157.804688 129.253906 161.25 C 120.933594 166.417969 112.242188 170.574219 103.175781 173.714844 C 96.355469 176.148438 89.347656 177.871094 82.242188 178.988281 C 78.410156 179.59375 74.578125 180 70.746094 179.898438 C 64.300781 179.695312 57.945312 178.886719 51.683594 177.667969 C 41.027344 175.539062 30.652344 172.398438 20.28125 169.054688 C 19.625 168.851562 19.253906 168.546875 19.160156 167.636719 C 18.222656 161.65625 17.757812 155.574219 18.039062 150.304688 Z M 110.746094 158.714844 C 110.46875 158.714844 110.375 158.917969 110.28125 159.121094 C 109.90625 160.136719 110.46875 161.65625 111.496094 162.667969 C 112.429688 163.480469 112.898438 162.566406 113.550781 162.261719 C 113.738281 162.164062 113.832031 162.0625 114.019531 161.859375 C 114.671875 161.25 114.578125 159.730469 113.738281 159.527344 C 112.710938 159.222656 111.589844 159.730469 110.746094 158.714844 Z M 41.777344 146.757812 C 41.777344 146.65625 41.777344 146.554688 41.777344 146.351562 C 41.683594 145.742188 42.054688 145.035156 41.402344 144.730469 C 40.746094 144.425781 40.46875 145.238281 40.09375 145.640625 C 38.972656 146.859375 38.972656 147.0625 40.5625 147.972656 C 40.933594 148.175781 41.214844 148.683594 41.683594 148.378906 C 42.054688 148.175781 41.777344 147.667969 41.871094 147.261719 C 41.871094 147.0625 41.777344 146.960938 41.777344 146.757812 Z M 58.785156 178.074219 C 59.90625 178.074219 60.933594 178.785156 62.054688 178.378906 C 62.429688 178.277344 62.804688 178.175781 62.898438 177.667969 C 62.992188 177.164062 62.617188 177.164062 62.335938 176.859375 C 61.496094 175.945312 60.746094 177.164062 60 176.960938 C 59.347656 176.859375 58.878906 177.363281 58.785156 178.074219 Z M 58.785156 178.074219 "/>
<path style=" stroke:none;fill-rule:nonzero;fill:rgb(0%,0%,0%);fill-opacity:1;" d="M 283.925781 148.988281 C 284.113281 162.464844 282.429688 175.136719 279.347656 187.601562 C 277.757812 194.1875 275.609375 200.675781 273.085938 206.960938 C 272.617188 208.175781 272.242188 208.175781 271.496094 207.0625 C 266.449219 199.664062 260.746094 192.769531 254.484375 186.488281 C 249.625 181.519531 244.390625 176.960938 238.878906 172.703125 C 233.175781 168.242188 227.101562 164.390625 220.839844 160.945312 C 211.960938 156.082031 202.617188 152.230469 192.992188 149.492188 C 187.757812 147.972656 182.429688 146.757812 177.101562 145.945312 C 173.085938 145.335938 169.160156 144.832031 165.140625 144.628906 C 162.617188 144.425781 160.09375 144.527344 157.664062 144.425781 C 156.914062 144.425781 156.636719 144.121094 156.542969 143.3125 C 156.167969 137.9375 156.355469 132.566406 156.636719 127.195312 C 157.101562 117.871094 158.222656 108.75 160.28125 99.628906 C 162.054688 91.722656 164.671875 84.121094 167.757812 76.722656 C 171.121094 68.613281 175.046875 60.8125 179.71875 53.511719 C 182.710938 48.851562 185.980469 44.390625 189.53125 40.136719 C 192.242188 36.890625 195.140625 33.851562 197.945312 30.710938 C 199.90625 28.480469 202.335938 26.65625 204.578125 24.832031 C 205.980469 23.613281 207.382812 22.296875 208.785156 21.082031 C 209.4375 20.472656 210 20.371094 210.839844 20.878906 C 219.4375 25.539062 227.476562 31.214844 234.953125 37.804688 C 240 42.261719 244.765625 47.128906 249.160156 52.296875 C 255.886719 60.203125 261.683594 68.816406 266.636719 78.242188 C 271.027344 86.554688 274.671875 95.269531 277.382812 104.390625 C 279.8125 112.398438 281.683594 120.609375 282.710938 129.019531 C 283.457031 135.609375 284.113281 142.5 283.925781 148.988281 Z M 252.804688 139.054688 C 251.871094 139.054688 251.402344 139.5625 251.214844 140.472656 C 251.027344 141.183594 252.148438 142.195312 253.085938 142.195312 C 253.925781 142.195312 254.765625 141.488281 254.765625 140.777344 C 254.859375 139.964844 253.832031 139.054688 252.804688 139.054688 Z M 252.804688 139.054688 "/>
<path style=" stroke:none;fill-rule:nonzero;fill:rgb(0%,0%,0%);fill-opacity:1;" d="M 150.46875 293.816406 C 145.980469 294.019531 141.027344 293.613281 136.167969 293.109375 C 127.664062 292.09375 119.4375 290.167969 111.308594 287.535156 C 103.550781 284.898438 96.167969 281.554688 89.066406 277.5 C 81.683594 273.242188 74.671875 268.277344 68.128906 262.703125 C 64.390625 259.460938 60.746094 256.011719 57.382812 252.363281 C 53.550781 248.210938 49.90625 243.851562 46.542969 239.289062 C 45.886719 238.277344 46.074219 237.972656 47.476562 237.667969 C 52.617188 236.757812 57.664062 235.742188 62.710938 234.527344 C 69.90625 232.804688 77.007812 230.777344 83.925781 228.242188 C 93.738281 224.59375 102.617188 219.324219 110.839844 212.535156 C 117.382812 207.0625 123.457031 201.082031 129.066406 194.59375 C 135.421875 187.296875 141.027344 179.289062 145.886719 170.777344 C 148.316406 166.621094 150.46875 162.261719 152.617188 157.90625 C 153.175781 156.6875 153.832031 156.992188 154.578125 157.398438 C 158.691406 159.832031 162.617188 162.363281 166.449219 165.101562 C 170.933594 168.34375 175.421875 171.6875 179.53125 175.539062 C 184.019531 179.695312 188.222656 184.054688 192.148438 188.816406 C 200.1875 198.75 206.824219 209.695312 212.242188 221.554688 C 216.730469 231.386719 219.8125 241.722656 222.148438 252.363281 C 223.085938 256.824219 223.175781 261.386719 224.113281 265.84375 C 224.207031 266.453125 224.207031 267.164062 224.390625 267.769531 C 224.953125 269.492188 224.300781 270.507812 222.898438 271.417969 C 213.175781 278.109375 202.898438 283.378906 191.960938 287.230469 C 184.300781 289.863281 176.542969 291.789062 168.503906 292.90625 C 162.617188 293.414062 156.730469 293.917969 150.46875 293.816406 Z M 128.410156 284.59375 C 128.128906 283.988281 128.128906 283.074219 127.101562 282.972656 C 126.542969 282.972656 125.886719 282.769531 125.328125 282.667969 C 125.046875 282.667969 124.671875 282.566406 124.578125 282.972656 C 124.484375 283.480469 124.953125 283.378906 125.234375 283.480469 C 126.355469 283.480469 126.730469 284.1875 126.824219 285.304688 C 126.824219 285.609375 126.824219 285.914062 126.914062 286.316406 C 126.914062 286.621094 127.101562 286.824219 127.382812 286.925781 C 127.664062 286.925781 127.945312 286.824219 128.039062 286.519531 C 128.128906 285.8125 128.222656 285.304688 128.410156 284.59375 Z M 128.410156 284.59375 "/>
</g>
</svg>
