<svg id="Layer_1" enable-background="new 0 0 512 512" height="512" viewBox="0 0 512 512" width="512" xmlns="http://www.w3.org/2000/svg"><g><path d="m435.765 377.563v-243.125c0-5.241-2.516-10.164-6.764-13.234l-163.438-118.109c-5.708-4.125-13.418-4.125-19.127 0l-163.437 118.109c-4.248 3.07-6.764 7.993-6.764 13.234v243.125c0 5.241 2.516 10.164 6.764 13.234l163.437 118.109c5.708 4.125 13.418 4.125 19.127 0l163.437-118.109c4.249-3.071 6.765-7.993 6.765-13.234z" fill="#6bd9e7"/><path d="m429.001 121.204-163.438-118.109c-5.708-4.125-13.418-4.125-19.127 0l-11.748 8.49 163.407 118.087c4.248 3.07 6.764 7.993 6.764 13.234v227.694c0 5.241-2.516 10.164-6.764 13.234l-162.365 117.334 10.707 7.738c5.708 4.125 13.418 4.125 19.127 0l163.437-118.109c4.248-3.07 6.764-7.993 6.764-13.234v-243.125c0-5.242-2.516-10.164-6.764-13.234z" fill="#2ed1e2"/><path d="m434.116 127.284-59.539 43.024-118.577-86.424v-83.884c3.354 0 6.708 1.035 9.561 3.095l163.435 118.104c2.215 1.599 3.96 3.701 5.12 6.085z" fill="#a6e7f0"/><path d="m398.095 129.672c4.248 3.07 6.764 7.993 6.764 13.234v5.519l29.25-21.137c-1.162-2.385-2.898-4.487-5.109-6.084l-163.437-118.109c-2.854-2.063-6.209-3.094-9.563-3.094v26.985z" fill="#6bd9e7"/><path d="m256 428.754v83.246c-3.354 0-6.708-1.035-9.561-3.095l-163.435-118.104c-2.215-1.6-3.96-3.701-5.12-6.085l59.153-42.742z" fill="#a6e7f0"/><path d="m435.767 134.446v243.109c0 2.52-.575 4.956-1.651 7.162l-59.152-42.742-.387-171.667 59.539-43.024c1.076 2.206 1.651 4.642 1.651 7.162z" fill="#2ed1e2"/><path d="m434.116 127.284-29.255 21.14v215.154l29.255 21.138c1.076-2.206 1.651-4.642 1.651-7.162v-243.108c0-2.52-.575-4.956-1.651-7.162z" fill="#02c7dd"/><path d="m137.037 170.025v171.949l-59.153 42.742c-1.076-2.206-1.651-4.642-1.651-7.162v-243.108c0-2.52.575-4.956 1.651-7.162z" fill="#2ed1e2"/><path d="m383.096 341.583v-171.166c0-3.934-1.888-7.628-5.077-9.932l-114.842-82.991c-4.284-3.096-10.07-3.096-14.355 0l-114.842 82.991c-3.188 2.304-5.077 5.998-5.077 9.932v171.166c0 3.934 1.888 7.628 5.077 9.932l114.842 82.991c4.284 3.096 10.071 3.096 14.355 0l114.842-82.991c3.189-2.304 5.077-5.998 5.077-9.932z" fill="#d4f2f6"/></g></svg>