<svg width="117" height="61" viewBox="0 0 117 61" fill="none" xmlns="http://www.w3.org/2000/svg">
<g filter="url(#filter0_d_4282_4578)">
<path d="M51.0946 14.7866C51.7613 14.1477 52.3168 13.5921 52.8724 13.0088C53.2891 12.5643 53.8724 12.3421 54.4002 12.1199C54.5947 12.0365 54.8725 12.0921 55.0947 12.1754C55.2892 12.231 55.4836 12.3699 55.6781 12.481C55.8447 13.2866 55.9558 14.0644 55.7614 14.87C55.7058 15.0922 55.7058 15.3144 55.8725 15.5089C56.0392 15.7033 56.2336 15.7311 56.5114 15.62C56.7892 15.37 56.9003 15.0089 57.0392 14.6477C57.1503 14.3977 57.2337 14.1477 57.317 13.8977C57.4559 13.5921 57.4559 13.5922 57.9559 13.4533C58.0115 13.5644 58.1226 13.6477 58.1226 13.7588C58.1226 14.3144 58.0948 14.87 58.0392 15.4255C57.9837 15.8978 57.9837 15.9256 58.317 16.4533C58.4281 16.4811 58.5948 16.5089 58.7337 16.5089C59.1504 16.5089 59.4282 16.3144 59.5948 15.9255C59.8448 15.2589 60.1226 14.62 60.4004 13.9533C60.456 13.8422 60.4838 13.7588 60.5393 13.6477C60.7338 13.2588 61.0115 13.0644 61.4282 13.1755C61.6782 13.3144 61.706 13.5921 61.7894 13.8144C61.956 14.2588 62.0949 14.7588 62.6505 15.0366C62.9005 14.9533 63.2061 14.87 63.5116 14.7866C63.7061 13.8977 63.9005 13.0644 64.1227 12.231C64.2061 11.8421 64.2894 11.4532 64.4005 11.0643C64.5116 10.6754 64.9005 10.5365 65.2339 10.7865C65.4283 10.9532 65.595 11.1754 65.7617 11.3699C65.9006 11.5365 65.9839 11.7588 66.2617 11.8143C66.5395 11.3143 66.7895 10.7865 67.1228 10.1754C66.9562 9.64758 66.7617 9.00867 66.3173 8.50865C66.1784 8.36976 66.0673 8.2031 65.9561 8.03643C65.2339 6.98084 64.5394 5.95302 63.8172 4.89744C63.5394 4.48076 63.2061 4.14742 62.706 3.98075C62.0394 3.75852 61.456 3.86963 60.9004 4.31409C60.7338 4.42521 60.6226 4.59188 60.456 4.73077C59.5948 5.50857 58.7059 6.31415 57.817 7.09195C57.7614 7.14751 57.6781 7.23084 57.6226 7.25862C57.0948 7.45307 56.7336 7.84198 56.3447 8.2031C55.5114 8.95312 54.678 9.67536 53.8725 10.4254C53.5391 10.7309 53.2335 11.0365 52.9002 11.3421C52.3724 11.8421 51.8168 12.3421 51.289 12.8421C51.2335 12.8699 51.1779 12.8977 51.0946 12.9255C50.7612 12.1477 50.9557 11.2865 50.7612 10.4809C51.0668 10.1754 51.3446 9.86981 51.6779 9.59203C52.8446 8.56422 53.9836 7.50864 55.1503 6.50861C55.5114 6.20304 55.9281 5.92525 56.3447 5.64746C56.7336 5.36968 57.0948 5.11967 57.4559 4.8141C58.5115 3.92519 59.5671 3.0085 60.6504 2.0918C61.4282 1.42512 62.206 0.758434 63.0394 0.0639689C63.5116 -0.130481 63.9283 0.147298 64.2061 0.50842C65.0672 1.56401 66.095 2.42514 67.0117 3.42517C68.1229 4.61965 69.2618 5.84192 70.4007 7.00862C71.0396 7.67531 71.7341 8.31421 72.4286 8.95312C72.7063 9.20313 72.8452 9.23091 73.4564 9.17535C74.3453 8.42533 75.262 7.59197 76.2064 6.78639C76.9565 6.17527 77.7065 5.50858 78.5121 4.98079C79.2065 4.53633 80.0121 4.23076 80.7899 3.89741C81.151 3.73074 81.5399 3.61963 81.9011 3.45296C82.7622 3.03628 83.6789 2.78627 84.6511 2.70294C84.8734 2.67516 85.0956 2.6196 85.2623 2.50848C86.4012 1.86957 87.6235 1.53623 88.9568 1.50845C89.3457 1.50845 89.7624 1.42512 90.1513 1.39734C90.9847 1.34178 91.7902 1.25845 92.5958 1.53623C93.0958 1.73068 93.5959 1.78624 94.0959 1.73069C94.7348 1.67513 95.2903 1.84179 95.7904 2.20292C96.1793 2.45292 96.5959 2.53626 97.0404 2.56404C97.5682 2.6196 98.096 2.70293 98.6238 2.75849C99.4849 2.89738 100.096 3.34184 100.402 4.1752C100.429 4.28631 100.513 4.36964 100.568 4.48076C100.679 4.53631 100.791 4.59188 100.929 4.64744C101.402 4.78633 101.763 5.06411 102.096 5.36968C102.596 5.84191 103.041 6.36971 103.679 6.67527C103.763 6.73083 103.846 6.81416 103.929 6.8975C104.402 7.61974 104.902 8.34199 105.374 9.03646C105.485 9.20313 105.596 9.3698 105.763 9.50869C106.318 10.0087 106.735 10.5921 107.068 11.2587C107.152 11.4532 107.291 11.6199 107.318 11.8699C107.235 11.8143 107.18 11.7588 107.096 11.7032C106.568 11.2032 106.041 10.7032 105.541 10.1754C104.985 9.59202 104.457 9.00867 103.929 8.42532C103.429 7.86975 102.846 7.42529 102.235 7.03639C101.874 6.81416 101.402 6.70306 100.985 6.6475C100.541 6.56417 100.152 6.39749 99.8183 6.09193C99.2071 5.53636 98.4571 5.28635 97.6238 5.39746C97.4571 5.42524 97.2626 5.42524 97.096 5.42524C96.7071 5.42524 96.3737 5.53635 96.0404 5.75858C95.5959 6.06415 95.2904 6.06414 94.9292 5.64746C94.5126 5.17523 93.9292 4.89744 93.4292 4.53632C93.1514 4.34187 92.7625 4.28631 92.4292 4.20297C91.7902 4.06408 91.1791 3.92518 90.5124 4.06408C90.4291 4.09186 90.3457 4.09187 90.2346 4.09187C88.8457 4.00853 87.5679 4.4252 86.2901 4.89744C85.7901 5.09189 85.29 5.25856 84.8178 5.45301C84.5956 5.31412 84.4289 5.17522 84.2345 5.03633C83.4567 4.95299 82.6511 5.03634 81.9011 5.3419C79.7621 6.20304 77.762 7.25863 76.0398 8.81423C74.8175 9.92537 73.4841 10.9532 72.1785 11.9532C71.0396 12.8143 70.0674 13.8422 69.3729 15.12C69.1229 15.5922 68.7618 16.0367 68.4007 16.4811C68.0395 16.8978 67.9006 17.3978 67.7895 17.9256C67.7062 18.3701 67.6229 18.8145 67.4562 19.2034C67.1784 19.9257 67.1784 20.6201 67.3173 21.3702C67.4284 21.9257 67.5117 22.4535 67.5117 23.0091C67.5395 23.9258 67.8451 24.7591 68.4007 25.4814C68.734 25.9258 69.234 26.037 69.7618 26.0925C70.3174 26.1481 70.873 26.0647 71.4007 25.8981C71.8174 25.787 72.123 25.5092 72.2619 25.1203C72.623 24.2036 73.0119 23.3147 72.8174 22.2869C72.7897 22.0646 72.8174 21.8424 72.8174 21.6202C72.8174 21.3424 72.9008 21.0924 73.123 20.8979C73.4841 20.5924 73.5953 20.1757 73.623 19.7034C73.6786 18.7868 74.3175 18.2589 75.2342 18.4256C75.5398 18.4812 75.8453 18.5645 76.0953 18.759C76.3176 18.8979 76.5676 19.009 76.8453 19.1479C77.1231 19.5646 77.1509 20.0646 77.0954 20.5923C76.9842 21.3701 76.8453 22.1757 76.762 22.9535C76.7342 23.2313 76.7898 23.5369 76.8453 23.8147C77.0676 25.2036 77.4287 26.537 77.9843 27.8426C78.3454 28.7037 78.9288 29.426 79.8454 29.8426C80.2899 30.0371 80.6788 30.3149 81.151 30.426C81.8733 30.5927 82.5677 30.5371 83.2344 30.2315C83.9567 29.8704 84.3734 29.2593 84.4567 28.4537C84.5122 27.8426 84.4289 27.2314 84.2067 26.6203C83.7622 25.4536 83.6233 24.2591 84.0122 23.0369C84.2067 22.398 84.4289 21.759 84.6511 21.1479C84.9845 20.2034 85.5956 19.509 86.4845 19.0368C87.0956 18.7034 87.7346 18.6756 88.3179 19.0645C88.8179 19.3979 89.0402 19.8979 89.0402 20.4812C89.0402 20.7868 88.9013 21.0368 88.7346 21.2868C88.3179 21.8979 87.8735 22.5368 87.5679 23.2313C87.2623 23.9258 87.0401 24.648 87.1234 25.4258C87.1512 25.6758 87.179 25.9258 87.2901 26.1203C87.7068 26.8425 88.1235 27.5648 88.7901 28.0648C89.0679 28.287 89.4013 28.4537 89.7346 28.5648C90.568 28.8426 91.318 28.4815 91.568 27.6203C91.7625 26.8981 92.068 26.2592 92.4569 25.6481C92.818 25.1203 93.2903 24.7314 93.8459 24.4258C94.1514 24.2591 94.4292 24.2591 94.7348 24.398C95.3181 24.7036 95.7626 25.0925 95.957 25.7314C96.5126 27.537 96.5682 29.3148 95.7626 31.0371C95.707 31.1482 95.6515 31.2316 95.6237 31.3427C95.4848 32.2316 94.9292 32.8983 94.4292 33.6205C94.0681 34.1205 93.707 34.6205 93.2903 35.0928C92.4569 36.0373 91.4291 36.6206 90.2069 36.9817C88.9013 37.3706 87.5679 37.5929 86.2623 37.954C85.8456 38.0651 85.3734 38.1207 84.9567 38.1207C83.4844 38.1484 82.0122 38.1207 80.5677 38.1484C79.0121 38.1762 77.4565 37.9818 75.9287 37.704C74.2619 37.3984 72.623 37.1206 70.9563 36.8151C70.2063 36.6762 69.484 36.4817 68.7618 36.2595C67.9284 36.0095 67.0951 35.7595 66.2895 35.4539C65.345 35.1206 64.4283 34.7317 63.5116 34.3428C62.2894 33.815 61.0671 33.2594 59.8449 32.7316C59.4282 32.5649 59.0115 32.426 58.5948 32.3149C57.5948 32.0094 56.5947 31.7316 55.5947 31.4538C55.178 31.3427 54.7891 31.2316 54.3725 31.176C52.7335 30.8704 51.0946 30.5926 49.4556 30.3149C49.3168 30.2871 49.1501 30.2871 48.9834 30.2871C47.2889 30.2871 45.5944 30.2871 43.9277 30.3149C43.4555 30.3149 42.9555 30.3704 42.4832 30.4538C41.6221 30.5649 40.7609 30.676 39.9276 30.8427C39.4276 30.926 38.9553 31.1204 38.4831 31.2593C38.0942 31.0927 37.7053 30.926 37.3164 30.7593C37.4553 30.3704 37.622 29.9815 37.7331 29.5648C37.7886 29.3982 37.8164 29.2037 37.7886 29.037C37.5664 28.287 37.7608 27.6203 38.0942 26.9814C38.3998 26.3981 38.5387 25.787 38.5387 25.1203C38.5387 24.648 38.4275 24.2869 37.9553 24.1202C37.8997 24.0925 37.8442 24.0369 37.7886 23.9813C37.6497 23.648 37.7053 23.3146 37.7886 22.9535C37.9831 22.1757 38.0664 21.3979 37.872 20.5923C37.8164 20.2868 37.7053 20.0923 37.3997 20.0368C37.1219 20.0646 36.9553 20.2312 36.8997 20.509C36.7608 21.2313 36.3719 21.8146 36.0386 22.4535C35.8441 22.8146 35.6775 23.148 35.5108 23.5369C35.1774 24.3147 34.6219 24.9258 34.0941 25.537C34.0107 25.6203 33.9274 25.7036 33.8441 25.7592C32.5662 26.4814 31.2884 27.2037 30.0106 27.9259C29.9273 27.9815 29.8162 28.037 29.7328 28.0926C29.1217 28.4815 28.5106 28.8982 27.8717 29.2593C27.0939 29.7315 26.4827 30.3704 26.0105 31.1204C25.816 31.426 25.566 31.6482 25.1494 31.7316C24.8716 31.6482 24.7605 31.3982 24.7605 31.1204C24.7327 30.6204 24.8438 30.1482 24.9827 29.676C25.1494 29.0093 25.1216 28.3704 24.816 27.7315C24.7882 27.6759 24.7327 27.6203 24.7049 27.5648C24.7049 27.5648 24.6771 27.5648 24.6494 27.537C24.6216 27.537 24.5938 27.537 24.5938 27.5648C24.1493 28.4259 23.4826 29.1759 23.0937 30.0649C22.9548 30.426 22.7049 30.7593 22.4826 31.0927C22.0659 31.7316 21.6215 32.3427 21.2604 33.0094C20.8715 33.7316 20.5659 34.5094 20.6215 35.3706C20.6492 35.6484 20.6215 35.8984 20.6215 36.1762C20.6215 36.4262 20.5937 36.6762 20.3437 36.8428C19.8437 36.6484 19.3159 36.4817 18.8158 36.2595C18.6214 36.1762 18.1769 35.8428 18.0658 35.6761C17.8436 35.3706 17.6769 35.2317 17.4825 34.8983C16.6769 34.4816 16.788 32.8705 16.788 32.7316C17.4825 32.0649 16.3158 31.7871 16.788 30.8427C16.7602 30.2038 17.0102 29.6204 17.3158 29.0926C17.8436 28.2037 18.3714 27.3426 18.9547 26.5092C19.6214 25.537 20.3437 24.6203 21.0659 23.6758C21.6493 22.9258 22.3159 22.2313 22.8715 21.4535C23.5104 20.6201 24.0938 19.759 24.6494 18.8701C25.1494 18.0923 25.9272 17.12 25.9827 16.0922C26.0661 16.1756 26.3161 16.5645 26.3994 16.6756C27.5105 17.4812 28.0383 17.8423 28.3161 18.9256C28.3995 19.0645 28.4272 19.509 28.5661 19.7034C28.6495 19.5368 28.8439 19.0923 28.8717 18.9534C29.0384 17.9534 29.5662 17.5645 30.1495 16.8145C30.3995 16.5089 31.2884 16.12 31.5384 15.8144C32.0662 15.12 32.2329 14.4811 32.9274 13.9255C33.8718 12.8699 34.5663 12.2866 35.8441 11.7865C36.5664 11.5365 37.0108 11.3699 37.5108 10.9532C38.7887 9.95316 39.5665 8.4531 40.5387 7.17528C41.5665 5.81413 41.9832 5.53635 42.7332 3.81408C43.1499 2.89739 42.4832 1.92513 42.6777 1.75846C42.761 1.78624 43.3166 2.17514 43.3721 2.2307C44.1777 3.06405 45.0111 3.84186 45.7889 4.73077C46.4 5.42524 46.7889 6.28637 47.1778 7.11972C47.7056 8.23087 48.3167 9.36979 48.789 10.5087C48.8445 10.6754 48.9278 10.8421 48.9834 11.0087C49.0945 11.2865 49.2334 11.5365 49.289 11.8143C49.539 12.8699 49.7334 14.0366 49.7334 15.1477C49.7334 15.7033 49.7612 16.2589 49.7612 16.7867C49.7612 18.509 49.7056 19.6479 49.0667 21.259C48.8167 21.8424 48.4278 22.7313 47.8167 23.4813C47.5945 23.7591 47.15 24.4258 47.1778 24.5647C47.3445 24.4814 48.2889 23.398 48.6223 22.9258C49.3168 21.8979 49.9001 20.7868 50.3723 19.6479C50.7612 18.7034 50.9279 17.6756 50.9835 16.6756C51.0112 15.9533 50.9279 15.3144 51.0946 14.7866ZM68.7896 8.95312C69.5118 9.00868 69.5118 9.00867 69.8729 8.56422C69.4007 8.00864 68.9007 7.4253 68.4284 6.86973C68.1229 6.89751 68.0118 7.06418 67.9284 7.28641C68.2062 8.2031 68.4007 8.53644 68.7896 8.95312Z" fill="white"/>
<path d="M4.12173 34.1206C4.01062 33.9817 3.8995 33.8151 3.76061 33.6484C3.76061 32.9539 3.76061 32.2595 3.76061 31.565C3.76061 31.315 3.87173 31.1205 4.17729 30.9261C4.37174 30.9539 4.64953 30.9261 4.89954 31.0094C5.23288 31.1205 5.53844 31.1205 5.84401 30.9817C6.51069 30.6483 7.17738 30.6205 7.87184 30.7872C8.26074 30.8705 8.64965 30.8983 9.03855 30.9261C9.39967 30.9539 9.67745 31.1483 9.95524 31.3983C10.2052 31.6206 10.4553 31.815 10.733 31.9539C11.2053 32.1761 11.5386 32.5372 11.7608 32.9539C11.9553 33.315 12.0386 33.7595 12.0664 34.1484C12.0942 35.6485 12.0942 37.1207 12.0664 38.6208C12.0664 38.843 11.9831 39.0652 11.9275 39.3152C11.6497 40.4542 11.1775 41.5097 10.5108 42.482C10.4553 42.5653 10.3997 42.6764 10.3441 42.8153C10.5108 42.9264 10.6497 43.0376 10.8164 43.1209C11.2053 43.3431 11.4275 43.6765 11.5108 44.1209C11.622 44.7598 11.7053 45.3987 12.0109 46.0099C12.0386 46.0654 12.0386 46.1488 12.0664 46.2043C12.2053 46.8155 12.3164 47.4266 12.4831 48.0377C12.6498 48.6488 12.5109 49.2322 12.4553 49.8433C12.3442 50.8156 12.3998 51.8156 12.0664 52.7323C11.8997 53.2045 11.6775 53.6768 11.4553 54.1212C11.2886 54.4268 11.0108 54.649 10.6775 54.7879C10.233 54.9546 9.81635 55.149 9.37189 55.2602C8.98299 55.3713 8.59409 55.4268 8.20519 55.4268C7.23294 55.4268 6.26069 55.5102 5.28843 55.2046C5.12176 55.149 4.87175 55.2324 4.6773 55.2879C4.23284 55.3435 3.87172 55.649 3.42726 55.5935C3.1217 55.4268 2.95503 55.2046 3.01059 54.899C3.06614 54.5101 3.12171 54.1212 3.2606 53.7323C3.37171 53.3712 3.62172 53.0934 4.06618 53.0656C4.14951 53.0656 4.23285 53.0101 4.37174 52.9823C4.39952 52.8156 4.45508 52.6767 4.45508 52.5101C4.45508 50.5933 4.4273 48.6766 4.4273 46.7877C4.4273 45.6488 4.53841 44.5098 4.53841 43.3709C4.56619 42.3431 4.64953 41.3153 4.45508 40.3153C4.4273 40.2319 4.4273 40.1208 4.4273 40.0375C4.37174 38.7874 4.34396 37.5374 4.2884 36.2596C4.26062 35.5651 4.17729 34.8707 4.12173 34.1206ZM7.95518 33.0928C7.5385 33.3428 7.09404 33.5928 6.64958 33.8706C6.62181 34.0095 6.53847 34.1484 6.53847 34.2873C6.53847 36.7874 6.53847 39.3152 6.53847 41.7875C6.78848 42.0653 7.03849 42.232 7.37183 42.2042C7.84407 42.1487 8.28853 42.0931 8.67743 41.7875C8.95521 41.5653 9.26078 41.3431 9.6219 41.0375C9.67746 40.9264 9.81635 40.7042 9.84412 40.5097C9.92746 39.7319 9.98302 38.9263 9.98302 38.1485C9.98302 37.5652 9.89968 36.9818 9.8719 36.3985C9.84413 36.0374 9.89968 35.6485 9.84412 35.2873C9.67745 33.8984 9.34411 33.5095 8.17741 33.1762C8.14963 33.1206 8.09408 33.1206 7.95518 33.0928ZM9.17744 53.0379C9.56634 52.6767 9.76079 52.2601 9.84412 51.8156C9.92746 51.3711 9.95524 50.8989 10.0108 50.4267C10.0664 49.9822 10.1219 49.5378 10.1219 49.1211C10.1219 48.4822 10.2608 47.8155 9.92746 47.2044C9.81635 46.9821 9.76079 46.7043 9.73301 46.4543C9.59412 45.5099 8.98299 44.9821 8.20519 44.5932C8.03852 44.5098 7.78851 44.5098 7.59406 44.5376C7.34405 44.5654 7.12182 44.6765 6.84404 44.7876C6.78848 45.2876 6.70514 45.7599 6.67737 46.2321C6.64959 48.2044 6.62181 50.1767 6.81626 52.1767C6.84404 52.5378 6.8996 52.8712 7.12182 53.1768C7.81629 53.2045 8.51075 53.2323 9.17744 53.0379Z" fill="white"/>
<path d="M113.541 36.4821C112.986 37.0654 112.069 37.121 111.263 37.4543C111.124 37.2876 110.958 37.1487 110.93 36.9821C110.902 36.7598 110.902 36.5098 111.041 36.3432C111.43 35.8709 111.43 35.3709 111.347 34.8431C111.263 34.3153 110.958 33.9542 110.458 33.6486C109.124 33.3986 108.374 34.0375 107.874 35.0931C107.485 35.9543 107.569 36.8432 107.763 37.7321C107.819 38.0377 107.958 38.2877 108.069 38.5932C108.208 39.0099 108.513 39.3155 108.819 39.621C109.458 40.1766 110.152 40.51 110.874 40.8989C111.43 41.2322 111.93 41.7044 112.402 42.1489C113.208 42.9545 113.541 43.9267 113.763 45.0101C114.152 46.7046 113.93 48.4546 113.986 50.1769C114.013 51.0658 113.93 51.927 113.708 52.7881C113.652 53.0103 113.569 53.177 113.513 53.3714C113.208 54.0937 112.68 54.5659 111.874 54.7882C111.43 54.9271 111.013 55.0937 110.541 55.1771C109.735 55.3993 108.958 55.4271 108.18 55.0104C107.902 54.8715 107.652 54.7882 107.374 54.677C106.541 54.2881 105.985 53.7048 105.735 52.8992C105.68 52.5937 105.541 52.3159 105.513 52.0103C105.485 51.7881 105.402 51.5381 105.485 51.3158C105.708 50.5103 105.596 49.7047 105.624 48.8991C105.624 48.8435 105.624 48.8158 105.624 48.7602C105.596 47.9546 105.819 47.7046 106.652 47.4268C107.124 47.2879 107.541 47.2602 108.013 47.2879C108.374 47.5379 108.402 47.8713 108.208 48.1491C107.902 48.6213 107.846 49.0935 107.874 49.5936C107.902 50.1491 107.902 50.7047 107.93 51.2603C107.93 51.677 108.208 51.9825 108.624 52.1492C109.069 52.3159 109.485 52.3992 109.847 52.4825C110.291 52.3436 110.569 52.2325 110.985 52.1492C111.458 51.5936 111.819 51.038 111.624 50.2325C111.485 49.7602 111.513 49.2602 111.597 48.7324C111.791 47.3991 111.708 46.0935 111.263 44.8156C111.235 44.7323 111.235 44.649 111.208 44.5656C110.902 44.2601 110.624 43.9823 110.208 43.7601C110.069 43.6767 109.902 43.5934 109.819 43.4545C109.541 43.0656 109.152 42.8711 108.68 42.76C108.152 42.6211 107.763 42.3711 107.43 41.9822C106.402 41.01 106.402 41.01 106.041 39.6766C105.763 38.8155 105.68 37.9265 105.541 37.0376C105.319 35.5931 105.819 34.3153 106.43 33.0375C106.485 32.9542 106.569 32.8153 106.596 32.7319C106.874 31.8708 107.569 31.4819 108.43 31.2319C109.291 30.9819 110.152 30.843 111.013 31.1764C111.874 31.5097 112.597 31.9819 112.958 32.8708C113.18 33.3709 113.319 33.8431 113.347 34.3987C113.319 35.1487 113.458 35.7876 113.541 36.4821Z" fill="white"/>
<path d="M93.5145 47.7598C93.5423 47.6209 93.5979 47.5376 93.5979 47.4543C93.5979 46.3987 93.709 45.3431 93.5145 44.2875C93.4589 43.9819 93.4867 43.7041 93.4867 43.3986C93.4312 42.3986 93.4034 41.4263 93.3478 40.454C93.3478 40.0929 93.2089 39.7318 93.5701 39.3985C94.0423 39.3151 94.5979 39.3707 95.0979 39.3707C95.3479 39.5096 95.459 39.704 95.459 39.9263C95.459 40.3429 95.5423 40.7874 95.2923 41.1763C95.209 41.3152 95.209 41.5374 95.1812 41.6763C95.0423 43.8986 95.0701 46.1209 95.0701 48.3432C95.0701 48.7876 95.1534 49.2321 95.1534 49.6765C95.1534 50.121 95.0979 50.5654 95.0979 51.0099C95.0979 51.2599 95.0979 51.4821 95.1257 51.7599C95.209 52.5377 95.209 53.3155 95.1534 54.1211C94.6534 54.5378 94.0701 54.3433 93.459 54.3989C93.3478 54.2045 93.1812 54.0378 93.0978 53.8711C92.4867 52.2877 91.9033 50.6766 91.2922 49.0932C91.0144 48.371 90.82 47.6487 90.57 46.9265C90.5422 46.8154 90.4589 46.6765 90.2922 46.5931C90.2922 46.7042 90.2644 46.8431 90.2644 46.9542C90.2644 49.1487 90.2644 51.371 90.2644 53.5655C90.2644 53.8711 90.2922 54.1489 89.9033 54.3989C89.3477 54.4267 88.7088 54.4545 88.0421 54.3711C87.931 53.8711 87.9032 53.3989 88.0977 52.9544C88.181 52.76 88.2088 52.5933 88.2366 52.3711C88.2643 51.9266 88.2366 51.4544 88.2644 51.0377C88.4866 48.2598 88.3199 45.482 88.4032 42.7041C88.431 41.7319 88.431 40.7874 88.431 39.8151C88.431 39.704 88.431 39.5929 88.4588 39.454C89.0422 39.3707 89.6255 39.3985 90.2366 39.4262C90.3477 39.6763 90.4589 39.8707 90.5422 40.1207C91.0144 41.4819 91.4867 42.8152 91.9311 44.1764C92.0978 44.6208 92.2367 45.1208 92.32 45.5931C92.4867 46.3431 92.8478 47.0098 93.2645 47.6487C93.3201 47.7043 93.4034 47.7043 93.5145 47.7598Z" fill="white"/>
<path d="M77.4288 45.3988C77.3733 46.0655 77.3177 46.8433 77.2621 47.5933C77.2621 47.8155 77.2621 47.9822 77.2344 48.2044C77.1788 49.1489 77.2066 50.0934 77.0677 51.0101C76.901 52.0379 76.6232 53.0102 75.7621 53.7324C74.9565 54.3991 74.0398 54.6491 73.012 54.4824C72.8176 54.4546 72.6509 54.3435 72.4564 54.2324C72.1231 54.038 71.7898 53.8713 71.4564 53.649C71.3175 53.5657 71.1509 53.4546 71.0953 53.3435C70.8453 52.8713 70.5119 52.4268 70.4564 51.8712C70.373 51.2601 70.2619 50.649 70.2342 50.0101C70.1786 48.8156 70.123 47.5933 70.123 46.3711C70.123 45.2044 70.1508 43.9821 70.2619 42.8154C70.3453 41.9265 70.4842 41.0376 70.9286 40.2598C71.0675 40.0098 71.2342 39.7875 71.4842 39.7042C72.2898 39.4264 73.0676 39.0375 73.9565 39.1208C74.4009 39.1764 74.901 39.2042 75.3454 39.3153C75.7621 39.4264 76.0677 39.7598 76.2899 40.1209C76.7899 41.0098 77.1788 41.9265 77.2621 42.9543C77.3455 43.7321 77.3733 44.5099 77.4288 45.3988ZM75.4288 46.7877C75.3732 45.6488 75.3176 44.5099 75.2621 43.371C75.2621 43.2876 75.2621 43.2321 75.2343 43.1487C75.151 42.6209 74.9565 42.2043 74.3732 42.0654C74.2621 42.0376 74.1509 41.982 74.0398 41.9265C73.6787 41.732 73.3454 41.7876 73.0398 42.0376C72.9287 42.1209 72.8453 42.2321 72.7065 42.2876C72.2898 42.4821 72.1509 42.8432 72.1231 43.2876C72.0675 44.3988 72.012 45.5377 71.9842 46.6489C71.9842 47.01 72.0398 47.3711 72.0675 47.7322C72.0953 48.6489 72.0675 49.5656 72.0953 50.4823C72.0953 50.8156 72.1787 51.149 72.2342 51.4823C72.2898 51.7601 72.4564 51.899 72.6787 52.0101C73.4009 52.3435 74.5398 52.2046 74.901 51.149C74.9843 50.899 75.0121 50.6767 75.0676 50.4267C75.0954 50.2045 75.0676 49.9823 75.1232 49.76C75.401 48.7878 75.4288 47.7878 75.4288 46.7877Z" fill="white"/>
<path d="M61.9838 39.4536C62.0949 39.4259 62.1505 39.3981 62.2338 39.3981C63.5672 39.3981 64.9284 39.3703 66.2617 39.3981C66.9284 39.3981 67.4562 39.7037 67.8173 40.287C67.8729 40.3703 67.9007 40.4537 67.9285 40.537C68.0951 41.3982 68.3451 42.2315 68.2062 43.1204C68.1785 43.2315 68.1507 43.3704 68.1785 43.4538C68.3451 44.0093 68.2063 44.5649 68.1229 45.1205C68.0118 45.8983 67.6785 46.4539 66.9562 46.815C66.7062 46.9261 66.7062 46.9539 66.5395 47.4261C66.6506 47.5372 66.7618 47.7039 66.9006 47.7872C67.4007 48.1484 67.7062 48.5928 67.7896 49.2039C67.9285 50.204 68.1507 51.1762 68.2896 52.1762C68.4007 52.8707 68.5674 53.1207 69.0952 53.5652C69.0952 53.8152 69.0952 54.0374 69.0952 54.343C68.4563 54.5096 67.8174 54.4541 67.1507 54.3985C66.8451 53.7874 66.7062 53.1485 66.5951 52.5374C66.5118 52.1762 66.484 51.7873 66.4284 51.4262C66.2895 50.5929 66.1506 49.7317 66.0395 48.9817C65.5117 48.315 65.5117 48.315 64.7339 48.0372C64.3172 48.2039 64.2617 48.565 64.3172 48.9817C64.5395 50.7595 64.4006 52.5096 64.4006 54.2874C64.4006 54.3152 64.3728 54.343 64.3728 54.343C63.9283 54.5374 62.6505 54.5652 62.0672 54.3708C61.9838 53.9263 61.9561 53.4541 62.2061 53.0096C62.2616 52.8985 62.3172 52.7596 62.3172 52.6485C62.4561 51.2318 62.5394 49.7873 62.4283 48.3428C62.3172 47.1205 62.3172 45.8705 62.3727 44.6483C62.4283 43.5649 62.4005 42.4537 62.4561 41.3704C62.4839 40.9815 62.4283 40.6204 62.2061 40.287C61.9561 39.9814 61.8727 39.7592 61.9838 39.4536ZM66.234 42.3426C66.2895 41.9815 65.984 41.7315 65.8728 41.4537C65.3173 41.0648 64.7895 41.0093 64.2339 41.3982C64.2061 41.6759 64.1783 41.926 64.1228 42.2037C64.0395 42.676 64.0394 43.176 64.2061 43.6482C64.2895 43.8704 64.3172 44.0649 64.3172 44.3149C64.345 44.7594 64.3172 45.2038 64.3172 45.7316C64.3728 45.7872 64.5117 45.8983 64.6506 46.0094C65.0117 45.8149 65.3728 45.6483 65.7339 45.5094C66.234 45.2594 66.484 44.8705 66.5118 44.3427C66.5395 44.0649 66.5117 43.8149 66.484 43.5371C66.4562 43.2038 66.4284 42.926 66.3729 42.5926C66.3729 42.5371 66.3729 42.5093 66.3729 42.4537C66.3173 42.426 66.2895 42.3982 66.234 42.3426Z" fill="white"/>
<path d="M79.0965 39.3981C79.791 39.3981 80.3743 39.3981 80.9855 39.3981C81.2633 39.7592 81.3466 40.1203 81.3466 40.5092C81.3466 41.0926 81.3188 41.6759 81.3188 42.2593C81.3188 44.8704 81.3188 47.5094 81.3188 50.1206C81.3188 50.7317 81.4577 51.3151 81.6799 51.8707C82.5133 52.3985 82.9022 52.454 83.93 52.0651C84.18 51.704 84.2911 51.2873 84.3189 50.8429C84.3467 50.2317 84.4022 49.5928 84.43 48.9817C84.43 48.8428 84.43 48.7039 84.43 48.5928C84.2078 46.9816 84.2634 45.3705 84.3745 43.7593C84.4578 42.7037 84.43 41.7037 84.4578 40.6481C84.4578 40.4259 84.4022 40.2037 84.4022 39.9814C84.4022 39.8148 84.4022 39.6203 84.4022 39.4259C85.0134 39.3147 85.6245 39.3703 86.1523 39.3981C86.4023 39.6203 86.3745 39.8147 86.3745 40.0092C86.3467 43.0093 86.3745 45.9816 86.319 48.9817C86.2912 50.1762 86.1801 51.3984 86.0967 52.5929C86.069 52.7874 86.0134 52.9818 85.9023 53.1485C85.3189 54.2318 85.2356 54.2318 84.0411 54.5374C82.8744 54.8152 81.7355 54.5374 80.5966 54.2874C80.4577 54.2596 80.3188 54.1763 80.2632 54.0652C79.9577 53.6485 79.6521 53.1763 79.6243 52.6207C79.5688 51.3151 79.5132 49.9817 79.4854 48.6761C79.4576 46.8705 79.4854 45.0927 79.5132 43.2871C79.5132 42.6482 79.4299 42.037 79.1799 41.4537C79.1521 41.3704 79.0965 41.287 79.0965 41.2037C79.0688 40.6203 79.041 40.037 79.0965 39.3981Z" fill="white"/>
<path d="M21.3439 54.3714C20.7606 54.427 20.205 54.4825 19.6217 54.5381C19.5383 54.5381 19.455 54.4548 19.3161 54.3992C19.1217 53.3714 18.9272 52.3158 18.705 51.2324C18.4272 50.8991 18.0939 50.7602 17.6216 50.8713C17.4827 50.8991 17.3438 50.9269 17.2327 50.9547C16.6494 51.038 16.5383 51.1213 16.3994 51.7325C16.2882 52.2047 16.2327 52.7047 16.1216 53.1769C16.0382 53.5381 15.9827 53.927 15.7327 54.2603C15.1215 54.427 14.4826 54.5381 13.816 54.3714C13.6771 53.8714 13.6771 53.3992 13.9271 52.9269C14.2326 52.3714 14.316 51.7602 14.4271 51.1213C14.566 50.3991 14.7326 49.6768 14.8438 48.9546C15.066 47.7601 15.2327 46.5101 15.4827 45.3156C15.7882 43.7878 15.8438 42.2044 16.2605 40.6766C16.2882 40.5377 16.316 40.3988 16.3716 40.3154C16.4827 40.0099 16.7327 39.8432 17.0383 39.8432C17.3161 39.8154 17.5661 39.8154 17.8439 39.8154C18.3161 39.8154 18.5661 39.9543 18.6772 40.4266C18.8994 41.121 19.0383 41.8433 19.205 42.5655C19.5383 44.1767 19.705 45.7878 20.0939 47.3712C20.2606 48.0101 20.3161 48.6768 20.455 49.3435C20.5106 49.6768 20.5939 49.9824 20.6773 50.3435C20.7884 50.8158 20.9273 51.3158 21.0384 51.788C21.1773 52.3158 21.2884 52.8714 21.4273 53.3992C21.594 53.7047 21.5384 54.0103 21.3439 54.3714ZM17.2605 47.9546C17.5938 48.0379 17.8994 48.0657 18.2328 47.9268C18.2328 47.8157 18.2605 47.7323 18.2605 47.649C18.1494 46.7879 18.0383 45.899 17.8994 45.0656C17.8716 44.9267 17.7883 44.8156 17.6772 44.6489C17.3994 45.3712 17.1494 47.3434 17.2605 47.9546Z" fill="white"/>
<path d="M59.4559 42.8429C59.0393 43.0929 58.6504 43.3151 58.1503 43.3984C58.0115 43.2873 57.8726 43.1484 57.7615 43.0373C57.7615 42.6762 57.7615 42.3151 57.7615 42.0095C57.2059 41.5095 56.817 41.4817 56.317 41.8706C55.7614 42.3151 55.2058 42.8151 55.0947 43.5651C55.0114 44.0929 54.9003 44.6485 54.928 45.1763C54.9558 46.7874 55.0114 48.3986 55.0947 50.0097C55.1225 50.5931 55.2336 51.2042 55.7336 51.6765C56.3447 52.232 57.5392 52.4543 58.1781 51.5653C58.2892 51.4264 58.4281 51.232 58.4281 51.0931C58.4837 50.3431 58.7337 49.5931 58.6504 48.8153C58.6504 48.7597 58.6504 48.7319 58.6504 48.6764C58.567 48.3152 58.4004 48.1486 58.0392 48.0652C57.9559 48.0375 57.8448 48.0652 57.7615 48.0652C57.6781 48.0652 57.5948 48.0375 57.4559 48.0097C57.3448 47.4263 57.4003 46.8708 57.4281 46.2319C57.8726 46.1207 58.3448 46.1485 58.7615 46.2319C59.1504 46.3152 59.5948 46.3152 60.0671 46.3707C60.1226 46.7319 60.1782 47.093 60.206 47.4541C60.2337 48.5375 60.2615 49.6208 60.2337 50.6764C60.206 51.5653 59.9837 52.4265 59.5115 53.1765C59.1504 53.7599 58.6781 54.1487 57.9837 54.2599C57.5948 54.3432 57.1781 54.5099 56.7614 54.5376C55.8725 54.5932 55.178 54.2043 54.5947 53.621C53.8169 52.8709 53.428 51.9265 53.2891 50.8987C53.1502 49.9264 53.0946 48.9819 53.1502 48.0097C53.178 47.6486 53.2057 47.343 53.2335 47.0097C53.2335 46.8985 53.2613 46.7874 53.2613 46.6485C53.0669 45.4818 53.4002 44.3151 53.2891 43.1762C53.2335 42.6206 53.3724 42.0928 53.5947 41.5928C53.9002 40.8706 54.2891 40.2317 54.8447 39.7039C55.5669 39.065 56.4281 38.8427 57.3448 39.1205C57.817 39.2594 58.2892 39.3983 58.6504 39.7317C59.2615 40.315 59.5948 41.0372 59.5948 41.8984C59.4559 42.2595 59.4559 42.5373 59.4559 42.8429Z" fill="white"/>
<path d="M97.0967 41.0925C97.0967 40.6481 97.0967 40.2036 97.0967 39.8147C97.2356 39.4536 97.5134 39.3703 97.8745 39.4258C98.5412 39.5925 99.2079 39.5369 99.8746 39.4258C100.514 39.3147 101.152 39.4536 101.791 39.6758C102.375 39.8981 102.736 40.3425 102.875 40.9537C103.041 41.7315 103.208 42.4815 103.347 43.2593C103.43 43.7315 103.486 44.2315 103.569 44.7038C103.625 45.0093 103.652 45.2871 103.708 45.5649C103.875 46.5371 103.958 47.4816 103.708 48.4261C103.514 49.1761 103.597 49.9539 103.597 50.7039C103.597 51.5095 103.375 52.2595 102.986 52.954C102.791 53.3151 102.514 53.5929 102.208 53.8707C101.958 54.1207 101.652 54.204 101.264 54.2318C100.18 54.2874 99.1246 54.3985 98.0412 54.454C97.7634 54.4818 97.5134 54.5374 97.2079 54.3152C97.0412 53.8985 96.9856 53.4262 97.3467 53.0373C97.6523 52.6484 97.7634 52.204 97.7356 51.7317C97.7079 50.4262 97.6801 49.0928 97.6523 47.7872C97.5967 45.9538 97.5134 44.1204 97.4579 42.287C97.4579 41.787 97.3467 41.4259 97.0967 41.0925ZM101.208 52.3984C101.736 52.0373 101.986 51.4817 101.93 50.7873C101.902 50.065 101.847 49.3706 101.902 48.6483C101.958 47.6483 101.875 46.676 101.958 45.676C102.041 44.5371 101.736 43.4537 101.375 42.4259C101.264 42.0926 101.069 41.8703 100.764 41.7592C100.625 41.7037 100.486 41.6203 100.402 41.5648C100.069 41.5648 99.819 41.5648 99.5968 41.5648C99.319 41.7314 99.2357 41.9259 99.2635 42.1481C99.2635 42.7593 99.2912 43.3982 99.2912 44.0093C99.319 44.5371 99.4024 45.0927 99.4024 45.6205C99.4301 47.0927 99.4024 48.5928 99.4024 50.065C99.4024 50.4262 99.3468 50.7317 99.319 51.0651C99.2912 51.4817 99.2912 51.9262 99.6801 52.2318C100.152 52.3151 100.597 52.6207 101.208 52.3984Z" fill="white"/>
<path d="M47.5128 45.5374C48.1795 45.5651 48.7906 45.5929 49.4573 45.6207C49.5406 46.204 49.4851 46.7596 49.5129 47.3152C49.3184 47.593 49.0962 47.593 48.8184 47.6208C48.5406 47.6485 48.2906 47.6207 48.0128 47.6485C47.5684 47.7041 47.3184 47.9263 47.235 48.343C47.2072 48.5097 47.2072 48.6763 47.2072 48.8152C47.2072 49.6486 47.235 50.4819 47.235 51.3153C47.235 51.6487 47.3461 51.8709 47.5961 52.0653C48.0961 52.1209 48.624 52.1764 49.1517 52.232C49.6518 52.2598 50.1795 52.2876 50.7073 52.2876C50.8185 52.9542 50.8462 53.5654 50.5684 54.1765C49.874 54.2876 49.1517 54.3987 48.4295 54.371C47.7072 54.3432 46.985 54.3709 46.2905 54.3987C45.9294 54.3987 45.5127 54.3987 45.2072 54.0376C45.0961 53.5654 45.0405 53.0376 45.2905 52.5653C45.5405 52.0653 45.4294 51.482 45.3461 50.982C45.2905 50.5653 45.2627 50.1486 45.3461 49.7319C45.4016 49.4541 45.3461 49.2041 45.3738 48.9263C45.4016 48.4819 45.4572 47.9819 45.485 47.5374C45.5127 47.2596 45.5127 47.0096 45.485 46.7318C45.3739 46.0374 45.4294 45.3707 45.4572 44.6762C45.5127 43.5373 45.4572 42.3984 45.4572 41.1761C45.3183 41.0928 45.1238 40.9539 45.0127 40.8428C44.9294 40.3428 44.9016 39.8983 45.2072 39.5372C45.6516 39.4261 46.1517 39.4816 46.5961 39.5094C46.8183 39.5094 47.0406 39.5372 47.2628 39.5372C47.4295 39.5372 47.5961 39.5372 47.7073 39.5372C48.0962 39.5372 48.5128 39.5372 48.9017 39.5094C49.4017 39.4538 49.9018 39.4816 50.4018 39.6483C50.5407 40.2039 50.4573 40.7872 50.4296 41.3706C50.2351 41.565 50.0407 41.5928 49.7907 41.565C49.2906 41.5372 48.7628 41.5095 48.235 41.5372C48.0406 41.5372 47.8739 41.6206 47.6239 41.7039C47.5684 41.9261 47.4572 42.1206 47.4572 42.3428C47.4017 43.2317 47.3739 44.0929 47.3461 44.954C47.3184 45.0651 47.2906 45.3429 47.5128 45.5374Z" fill="white"/>
<path d="M37.8724 41.8988C37.5113 41.9544 37.1501 41.9822 36.8168 42.0655C36.4001 42.1488 35.9557 42.1766 35.539 42.0655C34.9834 41.9544 34.4001 41.9544 33.8167 41.9822C33.0111 42.0099 32.6778 42.26 32.6222 42.8433C32.5944 43.1766 32.5944 43.4822 32.5944 43.8433C32.5944 46.1212 32.5944 48.4268 32.6222 50.6769C32.6222 51.6213 32.6778 52.538 32.7056 53.5103C32.7056 53.6214 32.7056 53.7325 32.7056 53.8436C32.6778 54.2047 32.4278 54.3992 32.0111 54.3992C31.65 54.3992 31.2333 54.3992 30.8722 54.3992C30.4833 54.3714 30.2055 54.1214 30.2055 53.7881C30.2055 53.5103 30.2888 53.2881 30.4555 53.0658C30.7055 52.7325 30.7333 52.3714 30.7333 52.0102C30.7055 50.8158 30.7888 49.5935 30.6499 48.4268C30.4555 46.8156 30.4833 45.2323 30.4555 43.6489C30.4555 43.3433 30.3999 43.0655 30.3444 42.7877C30.2888 42.5377 30.0666 42.4266 29.7888 42.3711C29.1221 42.26 28.4832 42.2322 27.8165 42.3988C27.5665 42.4544 27.4276 42.5933 27.3443 42.76C27.2887 42.8989 27.261 43.0655 27.2332 43.1767C27.2054 43.6489 27.1776 44.1211 27.1776 44.5934C27.1776 46.9823 27.1776 49.3713 27.1776 51.7602C27.1776 52.1769 27.2887 52.6214 27.3443 53.0381C27.3721 53.2881 27.4554 53.5381 27.4554 53.7881C27.4554 54.1492 27.0943 54.3714 26.622 54.3992C26.2609 54.427 25.8442 54.427 25.4831 54.3992C24.872 54.3714 24.6498 54.1492 24.7609 53.677C24.8164 53.427 24.8998 53.1769 25.0387 52.9547C25.2609 52.5936 25.3164 52.2603 25.3164 51.8714C25.2887 49.5379 25.3165 47.2323 25.2609 44.9267C25.2331 44.2045 25.0942 43.4822 24.9831 42.76C24.9276 42.4266 24.622 42.2322 24.2053 42.2322C23.8442 42.2044 23.4275 42.2322 23.0664 42.2322C22.733 42.2322 22.3997 42.2044 22.0664 42.2044C21.8164 42.1766 21.6219 42.0099 21.5941 41.8433C21.5663 41.621 21.5386 41.4266 21.5386 41.2044C21.5108 40.121 21.6219 40.0377 23.0664 40.0377C24.0386 40.0377 24.9553 40.0099 25.9276 39.8988C26.4831 39.8154 27.0665 39.8432 27.6499 39.8432C29.0388 39.8154 30.4277 39.8154 31.7889 39.8154C32.9278 39.8154 34.0945 39.8154 35.2056 39.9266C35.5668 39.9543 35.9556 39.9266 36.3446 39.9266C36.6779 39.9266 37.0112 39.8988 37.3446 39.871C37.5668 39.871 37.8168 40.0377 37.8446 40.2043C37.9002 40.6766 37.9557 41.1488 37.9835 41.621C38.0113 41.6766 37.9557 41.7599 37.8724 41.8988Z" fill="white"/>
<path d="M37.9836 43.8429C38.0114 44.0096 38.1225 44.1763 38.0669 44.2874C37.7613 45.4263 37.9002 46.593 37.8725 47.7319C37.8725 48.7319 37.8725 49.6764 37.8725 50.6765C37.8725 51.1487 37.9558 51.6209 38.178 52.0654C38.2891 52.2876 38.5114 52.4265 38.8169 52.4265C39.817 52.4543 40.817 52.5932 41.7893 52.2598C41.9281 52.2043 42.067 52.2321 42.2059 52.2043C42.5393 52.2043 42.9004 52.3987 42.9559 52.621C43.0671 53.0099 43.0671 53.4265 42.9282 53.7876C42.8171 54.0932 42.5393 54.2599 42.0948 54.2877C41.8448 54.3155 41.6226 54.3154 41.3726 54.3154C40.0392 54.3154 38.7058 54.3154 37.3724 54.3154C37.1224 54.3154 36.9002 54.2877 36.6502 54.2599C36.2891 54.2043 35.9557 53.9543 35.928 53.6765C35.9002 53.4265 35.928 53.1765 35.9002 52.9265C35.8724 51.8431 35.8168 50.7598 35.7891 49.6764C35.7891 48.8153 35.8168 47.9264 35.8446 47.093C35.8724 46.1763 35.8724 45.2874 35.8724 44.3985C35.8724 44.3707 35.8724 44.3152 35.8724 44.2874C35.9002 44.0374 36.178 43.8151 36.4835 43.7596C36.9835 43.7318 37.4002 43.7318 37.9836 43.8429Z" fill="white"/>
</g>
<defs>
<filter id="filter0_d_4282_4578" x="0.472722" y="0" width="116.055" height="60.6551" filterUnits="userSpaceOnUse" color-interpolation-filters="sRGB">
<feFlood flood-opacity="0" result="BackgroundImageFix"/>
<feColorMatrix in="SourceAlpha" type="matrix" values="0 0 0 0 0 0 0 0 0 0 0 0 0 0 0 0 0 0 127 0" result="hardAlpha"/>
<feOffset dy="2.52728"/>
<feGaussianBlur stdDeviation="1.26364"/>
<feComposite in2="hardAlpha" operator="out"/>
<feColorMatrix type="matrix" values="0 0 0 0 0.352941 0 0 0 0 0.403922 0 0 0 0 0.607843 0 0 0 1 0"/>
<feBlend mode="normal" in2="BackgroundImageFix" result="effect1_dropShadow_4282_4578"/>
<feBlend mode="normal" in="SourceGraphic" in2="effect1_dropShadow_4282_4578" result="shape"/>
</filter>
</defs>
</svg>
