<svg width="13" height="12" viewBox="0 0 13 12" fill="none" xmlns="http://www.w3.org/2000/svg">
<rect width="12.5455" height="12" rx="6" fill="#D597B2"/>
<path d="M6.97265 6.16727L6.6061 7.16218C6.51447 7.41091 6.48828 7.51564 6.48828 7.58109C6.48828 7.63345 6.51447 7.67273 6.56683 7.67273C6.69774 7.65964 7.0381 7.30618 7.07737 7.25382C7.09047 7.22764 7.11665 7.22764 7.13628 7.24727L7.20828 7.31927C7.23447 7.34545 7.24756 7.35855 7.22137 7.38473C7.1821 7.43709 6.72392 8.06545 6.01047 8.06545C5.87301 8.06545 5.82065 7.98691 5.82065 7.88218C5.82065 7.75127 5.92537 7.44364 6.18719 6.71709L6.37047 6.20655C6.43592 6.02982 6.47519 5.90545 6.47519 5.82691C6.47519 5.77455 6.44901 5.74836 6.39665 5.74836C6.29192 5.74836 5.99083 6.08873 5.89919 6.19345C5.87301 6.21964 5.84683 6.21964 5.82065 6.19345L5.75519 6.13455C5.72901 6.11491 5.71592 6.10182 5.72901 6.07564C5.76828 6.03636 6.35737 5.27709 6.93337 5.27709C7.09047 5.27709 7.16901 5.35564 7.16901 5.48655C7.16901 5.61745 7.08392 5.85964 6.97265 6.16727ZM7.09701 4.48509C6.83519 4.48509 6.71737 4.29527 6.71737 4.13164C6.71737 3.95491 6.88101 3.77818 7.08392 3.77818C7.34574 3.77818 7.48319 3.94182 7.48319 4.10545C7.48319 4.256 7.33265 4.48509 7.09701 4.48509Z" fill="white"/>
</svg>
