<svg width="46" height="24" viewBox="0 0 46 24" fill="none" xmlns="http://www.w3.org/2000/svg">
<path d="M19.9313 6.12779C20.2076 5.86302 20.4378 5.63278 20.668 5.39103C20.8407 5.20684 21.0825 5.11474 21.3012 5.02265C21.3818 4.98811 21.4969 5.01114 21.589 5.04568C21.6696 5.0687 21.7502 5.12626 21.8307 5.17231C21.8998 5.50615 21.9459 5.82848 21.8653 6.16233C21.8422 6.25442 21.8422 6.34651 21.9113 6.4271C21.9804 6.50768 22.061 6.5192 22.1761 6.47315C22.2912 6.36954 22.3373 6.21989 22.3948 6.07023C22.4409 5.96663 22.4754 5.86302 22.5099 5.75941C22.5675 5.63278 22.5675 5.63278 22.7747 5.57522C22.7977 5.62127 22.8438 5.6558 22.8438 5.70185C22.8438 5.93209 22.8323 6.16233 22.8092 6.39256C22.7862 6.58827 22.7862 6.59978 22.9244 6.8185C22.9704 6.83002 23.0395 6.84153 23.097 6.84153C23.2697 6.84153 23.3848 6.76094 23.4539 6.59978C23.5575 6.32349 23.6726 6.05872 23.7878 5.78244C23.8108 5.73639 23.8223 5.70185 23.8453 5.6558C23.9259 5.49464 24.041 5.41406 24.2137 5.46011C24.3173 5.51767 24.3288 5.63278 24.3633 5.72488C24.4324 5.90907 24.49 6.11628 24.7202 6.23139C24.8238 6.19686 24.9504 6.16233 25.0771 6.12779C25.1577 5.75941 25.2382 5.41406 25.3303 5.0687C25.3649 4.90753 25.3994 4.74637 25.4455 4.5852C25.4915 4.42404 25.6527 4.36648 25.7908 4.47008C25.8714 4.53915 25.9405 4.63125 26.0095 4.71184C26.0671 4.78091 26.1016 4.873 26.2168 4.89602C26.3319 4.68881 26.4355 4.47008 26.5736 4.21682C26.5045 3.9981 26.424 3.73332 26.2398 3.52611C26.1822 3.46855 26.1362 3.39948 26.0901 3.33041C25.7908 2.89296 25.503 2.46702 25.2037 2.02957C25.0886 1.85689 24.9504 1.71875 24.7432 1.64968C24.467 1.55758 24.2252 1.60363 23.995 1.78782C23.9259 1.83387 23.8798 1.90294 23.8108 1.9605C23.4539 2.28283 23.0855 2.61668 22.7171 2.93901C22.6941 2.96203 22.6596 2.99656 22.6366 3.00808C22.4178 3.08866 22.2682 3.24983 22.107 3.39948C21.7617 3.7103 21.4163 4.00961 21.0825 4.32043C20.9443 4.44706 20.8177 4.57369 20.6796 4.70032C20.4608 4.90753 20.2306 5.11475 20.0119 5.32196C19.9888 5.33347 19.9658 5.34498 19.9313 5.3565C19.7931 5.03416 19.8737 4.6773 19.7931 4.34345C19.9198 4.21682 20.0349 4.09019 20.173 3.97507C20.6565 3.54914 21.1285 3.11169 21.612 2.69726C21.7617 2.57063 21.9343 2.45551 22.107 2.34039C22.2682 2.22527 22.4178 2.12166 22.5675 1.99503C23.0049 1.62665 23.4424 1.24676 23.8914 0.866874C24.2137 0.590589 24.536 0.314306 24.8814 0.0265096C25.0771 -0.0540733 25.2498 0.0610424 25.3649 0.210696C25.7217 0.648147 26.1477 1.00501 26.5276 1.41944C26.988 1.91445 27.46 2.42098 27.932 2.90447C28.1968 3.18076 28.4846 3.44553 28.7724 3.7103C28.8875 3.81391 28.9451 3.82542 29.1983 3.8024C29.5667 3.49158 29.9466 3.14622 30.338 2.81238C30.6488 2.55912 30.9596 2.28283 31.2935 2.06411C31.5813 1.87992 31.9151 1.75329 32.2374 1.61514C32.3871 1.54607 32.5483 1.50003 32.6979 1.43096C33.0548 1.25828 33.4347 1.15467 33.8376 1.12014C33.9297 1.10862 34.0218 1.0856 34.0909 1.03955C34.5628 0.774779 35.0694 0.636636 35.6219 0.625124C35.7831 0.625124 35.9558 0.590589 36.1169 0.579077C36.4623 0.556054 36.7961 0.521518 37.13 0.636637C37.3372 0.717219 37.5444 0.740245 37.7516 0.717221C38.0164 0.694197 38.2466 0.763266 38.4539 0.91292C38.615 1.01653 38.7877 1.05106 38.9719 1.06258C39.1906 1.0856 39.4093 1.12013 39.6281 1.14316C39.9849 1.20072 40.2382 1.38491 40.3648 1.73026C40.3763 1.77631 40.4109 1.81084 40.4339 1.85689C40.4799 1.87991 40.526 1.90294 40.5835 1.92597C40.7792 1.98352 40.9289 2.09864 41.067 2.22527C41.2743 2.42097 41.4584 2.6397 41.7232 2.76633C41.7578 2.78935 41.7923 2.82389 41.8268 2.85842C42.0225 3.15773 42.2297 3.45704 42.4254 3.74484C42.4715 3.81391 42.5175 3.88298 42.5866 3.94054C42.8168 4.14775 42.9895 4.3895 43.1277 4.66579C43.1622 4.74637 43.2198 4.81544 43.2313 4.91905C43.1967 4.89602 43.1737 4.873 43.1392 4.84997C42.9205 4.64276 42.7017 4.43555 42.4945 4.21682C42.2643 3.97507 42.0455 3.73332 41.8268 3.49157C41.6196 3.26134 41.3779 3.07715 41.1246 2.91598C40.9749 2.82389 40.7792 2.77784 40.6066 2.75482C40.4224 2.72028 40.2612 2.65121 40.1231 2.52458C39.8698 2.29435 39.559 2.19074 39.2136 2.23679C39.1446 2.2483 39.064 2.2483 38.9949 2.2483C38.8337 2.2483 38.6956 2.29434 38.5575 2.38644C38.3733 2.51307 38.2466 2.51307 38.097 2.34039C37.9243 2.14469 37.6826 2.02957 37.4753 1.87992C37.3602 1.79933 37.1991 1.77631 37.0609 1.74177C36.7961 1.68421 36.5429 1.62665 36.2666 1.68421C36.2321 1.69572 36.1975 1.69573 36.1515 1.69573C35.5759 1.66119 35.0463 1.83387 34.5168 2.02957C34.3096 2.11015 34.1024 2.17922 33.9067 2.25981C33.8146 2.20225 33.7455 2.14469 33.6649 2.08713C33.3426 2.05259 33.0087 2.08713 32.6979 2.21376C31.8115 2.57063 30.9827 3.00808 30.2689 3.65274C29.7624 4.11322 29.2098 4.53916 28.6688 4.95358C28.1968 5.31045 27.7939 5.73639 27.5061 6.26594C27.4025 6.46164 27.2528 6.64582 27.1032 6.83001C26.9535 7.00269 26.896 7.2099 26.8499 7.42863C26.8154 7.61282 26.7808 7.79701 26.7118 7.95817C26.5966 8.25748 26.5966 8.54528 26.6542 8.8561C26.7002 9.08634 26.7348 9.30506 26.7348 9.5353C26.7463 9.91519 26.8729 10.2605 27.1032 10.5599C27.2413 10.744 27.4485 10.7901 27.6672 10.8131C27.8975 10.8361 28.1277 10.8016 28.3464 10.7325C28.5191 10.6865 28.6458 10.5714 28.7033 10.4102C28.853 10.0303 29.0141 9.66193 28.9335 9.23599C28.922 9.1439 28.9335 9.0518 28.9335 8.95971C28.9335 8.84459 28.9681 8.74098 29.0602 8.6604C29.2098 8.53377 29.2559 8.36109 29.2674 8.16539C29.2904 7.7855 29.5552 7.56677 29.9351 7.63584C30.0617 7.65887 30.1883 7.6934 30.292 7.77399C30.384 7.83154 30.4876 7.8776 30.6028 7.93515C30.7179 8.10783 30.7294 8.31504 30.7064 8.53377C30.6603 8.8561 30.6028 9.18994 30.5682 9.51227C30.5567 9.62739 30.5797 9.75403 30.6028 9.86914C30.6949 10.4447 30.8445 10.9973 31.0748 11.5384C31.2244 11.8952 31.4662 12.1945 31.8461 12.3672C32.0302 12.4478 32.1914 12.5629 32.3871 12.609C32.6864 12.678 32.9742 12.655 33.2505 12.5284C33.5498 12.3787 33.7225 12.1255 33.757 11.7916C33.78 11.5384 33.7455 11.2851 33.6534 11.0318C33.4692 10.5483 33.4117 10.0533 33.5728 9.54681C33.6534 9.28204 33.7455 9.01726 33.8376 8.764C33.9757 8.3726 34.229 8.08481 34.5974 7.8891C34.8506 7.75096 35.1154 7.73945 35.3572 7.90061C35.5644 8.03876 35.6565 8.24597 35.6565 8.48772C35.6565 8.61435 35.5989 8.71795 35.5298 8.82156C35.3572 9.07482 35.173 9.3396 35.0463 9.62739C34.9197 9.91519 34.8276 10.2145 34.8622 10.5368C34.8737 10.6404 34.8852 10.744 34.9312 10.8246C35.1039 11.1239 35.2766 11.4232 35.5529 11.6305C35.668 11.7226 35.8061 11.7916 35.9443 11.8377C36.2896 11.9528 36.6004 11.8031 36.704 11.4463C36.7846 11.147 36.9113 10.8822 37.0724 10.6289C37.2221 10.4102 37.4178 10.249 37.648 10.1224C37.7747 10.0533 37.8898 10.0533 38.0164 10.1109C38.2582 10.2375 38.4423 10.3987 38.5229 10.6635C38.7532 11.4117 38.7762 12.1485 38.4423 12.8622C38.4193 12.9083 38.3963 12.9428 38.3848 12.9889C38.3272 13.3572 38.097 13.6335 37.8898 13.9328C37.7401 14.14 37.5905 14.3473 37.4178 14.543C37.0724 14.9344 36.6465 15.1761 36.14 15.3258C35.5989 15.4869 35.0463 15.579 34.5053 15.7287C34.3326 15.7747 34.1369 15.7978 33.9642 15.7978C33.3541 15.8093 32.744 15.7977 32.1454 15.8093C31.5007 15.8208 30.856 15.7402 30.2229 15.6251C29.5322 15.4984 28.853 15.3833 28.1623 15.2567C27.8514 15.1991 27.5521 15.1185 27.2528 15.0265C26.9075 14.9228 26.5621 14.8192 26.2283 14.6926C25.8369 14.5545 25.457 14.3933 25.0771 14.2321C24.5706 14.0134 24.064 13.7832 23.5575 13.5644C23.3848 13.4954 23.2122 13.4378 23.0395 13.3918C22.6251 13.2651 22.2106 13.15 21.7962 13.0349C21.6235 12.9889 21.4624 12.9428 21.2897 12.9198C20.6105 12.7932 19.9313 12.678 19.2521 12.5629C19.1945 12.5514 19.1254 12.5514 19.0564 12.5514C18.3542 12.5514 17.6519 12.5514 16.9612 12.5629C16.7655 12.5629 16.5583 12.5859 16.3626 12.6205C16.0057 12.6665 15.6489 12.7126 15.3035 12.7816C15.0963 12.8162 14.9006 12.8968 14.7049 12.9543C14.5437 12.8852 14.3826 12.8162 14.2214 12.7471C14.279 12.5859 14.348 12.4248 14.3941 12.2521C14.4171 12.183 14.4286 12.1024 14.4171 12.0334C14.325 11.7226 14.4056 11.4463 14.5437 11.1815C14.6704 10.9397 14.7279 10.6865 14.7279 10.4102C14.7279 10.2145 14.6819 10.0648 14.4862 9.99577C14.4631 9.98426 14.4401 9.96124 14.4171 9.93821C14.3595 9.80007 14.3826 9.66193 14.4171 9.51227C14.4977 9.18994 14.5322 8.86761 14.4516 8.53377C14.4286 8.40713 14.3826 8.32655 14.2559 8.30353C14.1408 8.31504 14.0717 8.38411 14.0487 8.49923C13.9912 8.79854 13.83 9.04029 13.6919 9.30506C13.6113 9.45471 13.5422 9.59286 13.4731 9.75403C13.335 10.0764 13.1048 10.3296 12.886 10.5829C12.8515 10.6174 12.817 10.652 12.7824 10.675C12.2529 10.9743 11.7233 11.2736 11.1938 11.5729C11.1592 11.5959 11.1132 11.6189 11.0787 11.642C10.8254 11.8031 10.5721 11.9758 10.3074 12.1255C9.98504 12.3212 9.73178 12.5859 9.53607 12.8968C9.45549 13.0234 9.35189 13.1155 9.17921 13.15C9.06409 13.1155 9.01804 13.0119 9.01804 12.8968C9.00653 12.6895 9.05258 12.4938 9.11014 12.2981C9.17921 12.0219 9.1677 11.7571 9.04107 11.4923C9.02955 11.4693 9.00653 11.4463 8.99502 11.4232C8.99502 11.4232 8.98351 11.4232 8.972 11.4117C8.96049 11.4117 8.94897 11.4117 8.94897 11.4232C8.76478 11.7801 8.4885 12.0909 8.32733 12.4593C8.26977 12.609 8.16617 12.7471 8.07407 12.8853C7.9014 13.15 7.7172 13.4033 7.56755 13.6796C7.40638 13.9789 7.27976 14.3012 7.30278 14.6581C7.31429 14.7732 7.30278 14.8768 7.30278 14.9919C7.30278 15.0955 7.29127 15.1991 7.18766 15.2682C6.98045 15.1876 6.76172 15.1185 6.55451 15.0265C6.47393 14.9919 6.28973 14.8538 6.24369 14.7847C6.15159 14.6581 6.08252 14.6005 6.00194 14.4624C5.66809 14.2897 5.71414 13.622 5.71414 13.5644C6.00194 13.2882 5.51844 13.173 5.71414 12.7816C5.70263 12.5169 5.80624 12.2751 5.93287 12.0564C6.15159 11.688 6.37032 11.3312 6.61207 10.9858C6.88835 10.5829 7.18766 10.203 7.48697 9.81159C7.72871 9.50077 8.005 9.21297 8.23524 8.89064C8.50001 8.54528 8.74176 8.18842 8.972 7.82004C9.17921 7.4977 9.50154 7.09479 9.52457 6.66885C9.5591 6.70339 9.66271 6.86455 9.69724 6.9106C10.1577 7.24444 10.3764 7.39409 10.4916 7.84305C10.5261 7.90061 10.5376 8.08481 10.5952 8.16539C10.6297 8.09632 10.7103 7.91213 10.7218 7.85457C10.7909 7.44014 11.0096 7.27898 11.2513 6.96816C11.3549 6.84153 11.7233 6.68036 11.8269 6.55373C12.0457 6.26594 12.1147 6.00116 12.4025 5.77092C12.7939 5.33347 13.0817 5.09173 13.6113 4.88451C13.9106 4.78091 14.0948 4.71184 14.302 4.53916C14.8315 4.12473 15.1539 3.50309 15.5568 2.97354C15.9827 2.40946 16.1554 2.29434 16.4662 1.58061C16.6389 1.20072 16.3626 0.797801 16.4432 0.72873C16.4777 0.740242 16.708 0.901409 16.731 0.924433C17.0648 1.26979 17.4102 1.59212 17.7325 1.9605C17.9858 2.2483 18.1469 2.60516 18.3081 2.95052C18.5268 3.41099 18.7801 3.88298 18.9758 4.35496C18.9988 4.42404 19.0334 4.4931 19.0564 4.56218C19.1024 4.67729 19.16 4.7809 19.183 4.89602C19.2866 5.33347 19.3672 5.81697 19.3672 6.27745C19.3672 6.50768 19.3787 6.73792 19.3787 6.95665C19.3787 7.67038 19.3557 8.14236 19.0909 8.81005C18.9873 9.0518 18.8261 9.42018 18.5729 9.731C18.4808 9.84612 18.2966 10.1224 18.3081 10.18C18.3772 10.1454 18.7686 9.69647 18.9067 9.50076C19.1945 9.07483 19.4363 8.61435 19.632 8.14237C19.7931 7.75096 19.8622 7.32502 19.8852 6.9106C19.8967 6.61129 19.8622 6.34652 19.9313 6.12779ZM27.2643 3.7103C27.5636 3.73333 27.5636 3.73332 27.7133 3.54913C27.5176 3.3189 27.3104 3.07715 27.1147 2.84691C26.988 2.85843 26.942 2.9275 26.9075 3.01959C27.0226 3.39948 27.1032 3.53763 27.2643 3.7103Z" fill="#DC30EB"/>
<path d="M0.464861 14.1405C0.418814 14.083 0.372768 14.0139 0.315208 13.9448C0.315208 13.657 0.315208 13.3692 0.315208 13.0814C0.315208 12.9778 0.361256 12.8972 0.487886 12.8166C0.568469 12.8282 0.683588 12.8166 0.787195 12.8512C0.925337 12.8972 1.05197 12.8972 1.1786 12.8397C1.45488 12.7015 1.73116 12.69 2.01896 12.7591C2.18013 12.7936 2.34129 12.8051 2.50246 12.8166C2.65211 12.8282 2.76723 12.9087 2.88235 13.0124C2.98596 13.1044 3.08957 13.185 3.20468 13.2426C3.40039 13.3347 3.53853 13.4843 3.63062 13.657C3.7112 13.8067 3.74574 13.9909 3.75725 14.152C3.76876 14.7737 3.76876 15.3838 3.75725 16.0054C3.75725 16.0975 3.72272 16.1896 3.69969 16.2932C3.58457 16.7652 3.38887 17.2027 3.11259 17.6056C3.08956 17.6401 3.06654 17.6862 3.04352 17.7437C3.11259 17.7898 3.17015 17.8358 3.23922 17.8704C3.40038 17.9625 3.49248 18.1006 3.52701 18.2848C3.57306 18.5496 3.6076 18.8143 3.73423 19.0676C3.74574 19.0906 3.74574 19.1251 3.75725 19.1482C3.81481 19.4014 3.86086 19.6547 3.92993 19.908C3.999 20.1612 3.94144 20.403 3.91842 20.6562C3.87237 21.0591 3.89539 21.4736 3.75725 21.8535C3.68818 22.0492 3.59609 22.2449 3.50399 22.429C3.43492 22.5557 3.3198 22.6478 3.18166 22.7053C2.99747 22.7744 2.82479 22.855 2.6406 22.901C2.47944 22.9471 2.31827 22.9701 2.1571 22.9701C1.75419 22.9701 1.35128 23.0046 0.94836 22.878C0.879289 22.855 0.775681 22.8895 0.695098 22.9125C0.510908 22.9356 0.361254 23.0622 0.177065 23.0392C0.0504343 22.9701 -0.0186368 22.878 0.00438689 22.7514C0.0274106 22.5902 0.0504371 22.4291 0.107996 22.2679C0.154044 22.1182 0.25765 22.0031 0.441839 21.9916C0.476375 21.9916 0.510911 21.9686 0.56847 21.9571C0.579982 21.888 0.603005 21.8304 0.603005 21.7614C0.603005 20.967 0.591492 20.1727 0.591492 19.3899C0.591492 18.9179 0.637539 18.4459 0.637539 17.974C0.649051 17.548 0.683588 17.1221 0.603005 16.7077C0.591493 16.6731 0.591492 16.6271 0.591492 16.5925C0.568468 16.0745 0.556957 15.5565 0.533933 15.0269C0.522421 14.7391 0.487885 14.4513 0.464861 14.1405ZM2.0535 13.7146C1.88082 13.8182 1.69663 13.9218 1.51244 14.0369C1.50093 14.0945 1.46639 14.152 1.46639 14.2096C1.46639 15.2457 1.46639 16.2932 1.46639 17.3178C1.57 17.4329 1.67361 17.502 1.81175 17.4905C2.00745 17.4674 2.19164 17.4444 2.35281 17.3178C2.46793 17.2257 2.59456 17.1336 2.74421 17.007C2.76723 16.9609 2.82479 16.8688 2.8363 16.7882C2.87084 16.4659 2.89386 16.1321 2.89386 15.8097C2.89386 15.568 2.85933 15.3262 2.84782 15.0845C2.8363 14.9348 2.85933 14.7737 2.8363 14.624C2.76723 14.0484 2.62909 13.8873 2.14559 13.7491C2.13408 13.7261 2.11106 13.7261 2.0535 13.7146ZM2.56002 21.9801C2.72119 21.8304 2.80177 21.6578 2.8363 21.4736C2.87084 21.2894 2.88235 21.0937 2.90538 20.898C2.9284 20.7138 2.95142 20.5296 2.95142 20.3569C2.95142 20.0921 3.00898 19.8159 2.87084 19.5626C2.82479 19.4705 2.80177 19.3554 2.79026 19.2518C2.7327 18.8604 2.47944 18.6416 2.1571 18.4805C2.08803 18.4459 1.98443 18.4459 1.90384 18.4575C1.80024 18.469 1.70814 18.515 1.59302 18.5611C1.57 18.7683 1.53546 18.964 1.52395 19.1597C1.51244 19.977 1.50093 20.7944 1.58151 21.6232C1.59302 21.7729 1.61605 21.911 1.70814 22.0376C1.99594 22.0492 2.28374 22.0607 2.56002 21.9801Z" fill="#DC30EB"/>
<path d="M45.8099 15.1187C45.5797 15.3605 45.1998 15.3835 44.866 15.5216C44.8084 15.4526 44.7393 15.395 44.7278 15.3259C44.7163 15.2338 44.7163 15.1302 44.7739 15.0612C44.935 14.8655 44.935 14.6583 44.9005 14.4395C44.866 14.2208 44.7393 14.0711 44.5321 13.9445C43.9795 13.8409 43.6687 14.1057 43.4615 14.5431C43.3003 14.9 43.3349 15.2684 43.4155 15.6368C43.4385 15.7634 43.4961 15.867 43.5421 15.9936C43.5997 16.1663 43.7263 16.2929 43.8529 16.4196C44.1177 16.6498 44.4055 16.7879 44.7048 16.9491C44.935 17.0873 45.1422 17.283 45.3379 17.4671C45.6718 17.801 45.8099 18.2039 45.902 18.6529C46.0632 19.3551 45.9711 20.0803 45.9941 20.7941C46.0056 21.1624 45.9711 21.5193 45.879 21.8762C45.856 21.9683 45.8214 22.0373 45.7984 22.1179C45.6718 22.4172 45.4531 22.6129 45.1192 22.705C44.935 22.7626 44.7624 22.8317 44.5667 22.8662C44.2328 22.9583 43.9105 22.9698 43.5881 22.7971C43.473 22.7396 43.3694 22.705 43.2543 22.659C42.9089 22.4978 42.6787 22.2561 42.5751 21.9222C42.5521 21.7956 42.4945 21.6805 42.483 21.5539C42.4715 21.4618 42.437 21.3581 42.4715 21.2661C42.5636 20.9322 42.5175 20.5984 42.5291 20.2645C42.5291 20.2415 42.5291 20.23 42.5291 20.207C42.5175 19.8731 42.6096 19.7695 42.955 19.6544C43.1507 19.5968 43.3234 19.5853 43.5191 19.5968C43.6687 19.7004 43.6802 19.8386 43.5997 19.9537C43.473 20.1494 43.45 20.3451 43.4615 20.5523C43.473 20.7826 43.473 21.0128 43.4845 21.243C43.4845 21.4157 43.5997 21.5423 43.7723 21.6114C43.9565 21.6805 44.1292 21.715 44.2789 21.7496C44.463 21.692 44.5782 21.6459 44.7508 21.6114C44.9465 21.3812 45.0962 21.1509 45.0156 20.8171C44.9581 20.6214 44.9696 20.4142 45.0041 20.1955C45.0847 19.6429 45.0502 19.1018 44.866 18.5723C44.8545 18.5377 44.8544 18.5032 44.8429 18.4687C44.7163 18.342 44.6012 18.2269 44.4285 18.1348C44.371 18.1003 44.3019 18.0658 44.2673 18.0082C44.1522 17.847 43.9911 17.7665 43.7954 17.7204C43.5766 17.6628 43.4155 17.5592 43.2773 17.3981C42.8514 16.9952 42.8514 16.9952 42.7017 16.4426C42.5866 16.0857 42.5521 15.7173 42.4945 15.349C42.4024 14.7503 42.6096 14.2208 42.8629 13.6913C42.8859 13.6567 42.9205 13.5992 42.932 13.5646C43.0471 13.2078 43.3349 13.0466 43.6918 12.943C44.0486 12.8394 44.4055 12.7818 44.7624 12.92C45.1192 13.0581 45.4185 13.2538 45.5682 13.6222C45.6603 13.8294 45.7178 14.0251 45.7294 14.2553C45.7178 14.5662 45.7754 14.8309 45.8099 15.1187Z" fill="#DC30EB"/>
<path d="M37.51 19.7927C37.5215 19.7351 37.5445 19.7006 37.5445 19.6661C37.5445 19.2286 37.5905 18.7912 37.51 18.3537C37.4869 18.2271 37.4985 18.112 37.4985 17.9853C37.4754 17.5709 37.4639 17.168 37.4409 16.7651C37.4409 16.6154 37.3833 16.4658 37.533 16.3276C37.7287 16.2931 37.9589 16.3161 38.1661 16.3161C38.2697 16.3737 38.3158 16.4543 38.3158 16.5464C38.3158 16.719 38.3503 16.9032 38.2467 17.0644C38.2122 17.1219 38.2122 17.214 38.2007 17.2716C38.1431 18.1925 38.1546 19.1135 38.1546 20.0344C38.1546 20.2186 38.1892 20.4028 38.1892 20.587C38.1892 20.7712 38.1661 20.9554 38.1661 21.1396C38.1661 21.2432 38.1661 21.3353 38.1777 21.4504C38.2122 21.7727 38.2122 22.0951 38.1892 22.4289C37.9819 22.6016 37.7402 22.521 37.4869 22.544C37.4409 22.4634 37.3718 22.3944 37.3373 22.3253C37.084 21.6691 36.8423 21.0014 36.589 20.3453C36.4739 20.046 36.3933 19.7466 36.2897 19.4473C36.2782 19.4013 36.2437 19.3437 36.1746 19.3092C36.1746 19.3552 36.1631 19.4128 36.1631 19.4588C36.1631 20.3683 36.1631 21.2892 36.1631 22.1987C36.1631 22.3253 36.1746 22.4404 36.0134 22.544C35.7832 22.5555 35.5184 22.567 35.2421 22.5325C35.1961 22.3253 35.1846 22.1296 35.2651 21.9454C35.2997 21.8648 35.3112 21.7958 35.3227 21.7037C35.3342 21.5195 35.3227 21.3238 35.3342 21.1511C35.4263 19.9999 35.3572 18.8487 35.3918 17.6975C35.4033 17.2946 35.4033 16.9032 35.4033 16.5003C35.4033 16.4543 35.4033 16.4082 35.4148 16.3506C35.6566 16.3161 35.8983 16.3276 36.1516 16.3391C36.1976 16.4427 36.2437 16.5233 36.2782 16.6269C36.4739 17.191 36.6696 17.7436 36.8538 18.3077C36.9229 18.4919 36.9804 18.6991 37.015 18.8948C37.084 19.2056 37.2337 19.4819 37.4064 19.7466C37.4294 19.7697 37.4639 19.7697 37.51 19.7927Z" fill="#DC30EB"/>
<path d="M30.8445 18.8144C30.8215 19.0907 30.7985 19.4131 30.7754 19.7239C30.7754 19.816 30.7754 19.885 30.7639 19.9771C30.7409 20.3685 30.7524 20.7599 30.6949 21.1398C30.6258 21.5658 30.5107 21.9687 30.1538 22.268C29.82 22.5443 29.4401 22.6479 29.0141 22.5788C28.9335 22.5673 28.8645 22.5213 28.7839 22.4752C28.6457 22.3946 28.5076 22.3256 28.3695 22.2335C28.3119 22.1989 28.2428 22.1529 28.2198 22.1068C28.1162 21.9111 27.9781 21.7269 27.955 21.4967C27.9205 21.2434 27.8744 20.9902 27.8629 20.7254C27.8399 20.2304 27.8169 19.7239 27.8169 19.2174C27.8169 18.7339 27.8284 18.2273 27.8745 17.7438C27.909 17.3755 27.9665 17.0071 28.1507 16.6848C28.2083 16.5811 28.2774 16.489 28.381 16.4545C28.7148 16.3394 29.0371 16.1782 29.4055 16.2128C29.5897 16.2358 29.7969 16.2473 29.9811 16.2933C30.1538 16.3394 30.2804 16.4775 30.3725 16.6272C30.5797 16.9956 30.7409 17.3755 30.7754 17.8014C30.81 18.1237 30.8215 18.4461 30.8445 18.8144ZM30.0157 19.39C29.9926 18.918 29.9696 18.4461 29.9466 17.9741C29.9466 17.9395 29.9466 17.9165 29.9351 17.882C29.9005 17.6633 29.82 17.4906 29.5782 17.433C29.5322 17.4215 29.4861 17.3985 29.4401 17.3755C29.2904 17.2949 29.1523 17.3179 29.0256 17.4215C28.9796 17.456 28.9451 17.5021 28.8875 17.5251C28.7148 17.6057 28.6573 17.7553 28.6457 17.9395C28.6227 18.4 28.5997 18.872 28.5882 19.3325C28.5882 19.4821 28.6112 19.6318 28.6227 19.7814C28.6342 20.1613 28.6227 20.5412 28.6342 20.9211C28.6342 21.0593 28.6688 21.1974 28.6918 21.3355C28.7148 21.4507 28.7839 21.5082 28.876 21.5543C29.1753 21.6924 29.6473 21.6348 29.7969 21.1974C29.8315 21.0938 29.843 21.0017 29.866 20.8981C29.8775 20.806 29.866 20.7139 29.889 20.6218C30.0041 20.2189 30.0157 19.8045 30.0157 19.39Z" fill="#DC30EB"/>
<path d="M24.4443 16.3509C24.4904 16.3394 24.5134 16.3279 24.5479 16.3279C25.1005 16.3279 25.6646 16.3164 26.2172 16.3279C26.4934 16.3279 26.7122 16.4545 26.8618 16.6963C26.8848 16.7308 26.8964 16.7653 26.9079 16.7999C26.9769 17.1567 27.0805 17.5021 27.023 17.8705C27.0115 17.9165 27 17.9741 27.0115 18.0086C27.0805 18.2388 27.023 18.4691 26.9885 18.6993C26.9424 19.0216 26.8043 19.2519 26.505 19.4015C26.4013 19.4476 26.4013 19.4591 26.3323 19.6548C26.3783 19.7008 26.4244 19.7699 26.4819 19.8045C26.6891 19.9541 26.8158 20.1383 26.8503 20.3916C26.9079 20.806 27 21.2089 27.0575 21.6233C27.1036 21.9111 27.1726 22.0147 27.3914 22.1989C27.3914 22.3025 27.3914 22.3946 27.3914 22.5212C27.1266 22.5903 26.8618 22.5673 26.5855 22.5443C26.4589 22.291 26.4013 22.0262 26.3553 21.773C26.3208 21.6233 26.3092 21.4622 26.2862 21.3125C26.2287 20.9671 26.1711 20.6103 26.1251 20.2995C25.9063 20.0232 25.9063 20.0232 25.584 19.9081C25.4113 19.9771 25.3883 20.1268 25.4113 20.2995C25.5034 21.0362 25.4459 21.7615 25.4459 22.4982C25.4459 22.5097 25.4344 22.5212 25.4344 22.5212C25.2502 22.6018 24.7206 22.6133 24.4789 22.5328C24.4443 22.3486 24.4328 22.1529 24.5364 21.9687C24.5595 21.9226 24.5825 21.8651 24.5825 21.819C24.64 21.2319 24.6746 20.6333 24.6285 20.0347C24.5825 19.5282 24.5825 19.0101 24.6055 18.5036C24.6285 18.0547 24.617 17.5942 24.64 17.1452C24.6515 16.9841 24.6285 16.8344 24.5364 16.6963C24.4328 16.5696 24.3983 16.4775 24.4443 16.3509ZM26.2056 17.5481C26.2287 17.3985 26.102 17.2949 26.056 17.1798C25.8257 17.0186 25.607 16.9956 25.3768 17.1567C25.3653 17.2718 25.3538 17.3755 25.3307 17.4906C25.2962 17.6863 25.2962 17.8935 25.3653 18.0892C25.3998 18.1813 25.4113 18.2619 25.4113 18.3655C25.4228 18.5497 25.4113 18.7338 25.4113 18.9526C25.4343 18.9756 25.4919 19.0216 25.5495 19.0677C25.6991 18.9871 25.8488 18.918 25.9984 18.8605C26.2056 18.7569 26.3093 18.5957 26.3208 18.377C26.3323 18.2619 26.3208 18.1583 26.3092 18.0431C26.2977 17.905 26.2862 17.7899 26.2632 17.6517C26.2632 17.6287 26.2632 17.6172 26.2632 17.5942C26.2402 17.5827 26.2287 17.5712 26.2056 17.5481Z" fill="#DC30EB"/>
<path d="M31.5353 16.3276C31.8231 16.3276 32.0648 16.3276 32.3181 16.3276C32.4332 16.4772 32.4677 16.6269 32.4677 16.788C32.4677 17.0298 32.4562 17.2715 32.4562 17.5133C32.4562 18.5954 32.4562 19.689 32.4562 20.7711C32.4562 21.0244 32.5138 21.2661 32.6059 21.4964C32.9512 21.7151 33.1124 21.7381 33.5383 21.577C33.6419 21.4273 33.688 21.2546 33.6995 21.0704C33.711 20.8172 33.734 20.5524 33.7455 20.2991C33.7455 20.2416 33.7455 20.184 33.7455 20.138C33.6534 19.4703 33.6765 18.8026 33.7225 18.1349C33.7571 17.6975 33.7455 17.283 33.7571 16.8456C33.7571 16.7535 33.734 16.6614 33.734 16.5693C33.734 16.5002 33.734 16.4197 33.734 16.3391C33.9873 16.293 34.2405 16.316 34.4593 16.3276C34.5629 16.4197 34.5514 16.5002 34.5514 16.5808C34.5399 17.8241 34.5514 19.0559 34.5283 20.2991C34.5168 20.7942 34.4708 21.3007 34.4363 21.7957C34.4247 21.8763 34.4017 21.9569 34.3557 22.0259C34.1139 22.4749 34.0794 22.4749 33.5844 22.6015C33.1009 22.7166 32.6289 22.6015 32.1569 22.4979C32.0993 22.4864 32.0418 22.4519 32.0188 22.4058C31.8921 22.2331 31.7655 22.0374 31.754 21.8072C31.731 21.2661 31.7079 20.7136 31.6964 20.1725C31.6849 19.4242 31.6964 18.6875 31.7079 17.9392C31.7079 17.6744 31.6734 17.4212 31.5698 17.1794C31.5583 17.1449 31.5353 17.1104 31.5353 17.0758C31.5238 16.8341 31.5122 16.5923 31.5353 16.3276Z" fill="#DC30EB"/>
<path d="M7.60222 22.5327C7.36047 22.5557 7.13024 22.5787 6.88849 22.6018C6.85395 22.6018 6.81942 22.5672 6.76186 22.5442C6.68127 22.1183 6.60069 21.6808 6.5086 21.2319C6.39348 21.0937 6.25534 21.0362 6.05963 21.0822C6.00207 21.0937 5.94452 21.1052 5.89847 21.1167C5.65672 21.1513 5.61067 21.1858 5.55311 21.4391C5.50707 21.6348 5.48404 21.842 5.43799 22.0377C5.40346 22.1873 5.38044 22.3485 5.27683 22.4867C5.02357 22.5557 4.7588 22.6018 4.48251 22.5327C4.42495 22.3255 4.42495 22.1298 4.52856 21.9341C4.65519 21.7038 4.68972 21.4506 4.73577 21.1858C4.79333 20.8865 4.8624 20.5872 4.90845 20.2879C5.00054 19.7929 5.06962 19.2748 5.17322 18.7798C5.29985 18.1467 5.32288 17.4905 5.49555 16.8574C5.50707 16.7998 5.51858 16.7422 5.5416 16.7077C5.58765 16.5811 5.69125 16.512 5.81788 16.512C5.933 16.5005 6.03661 16.5005 6.15173 16.5005C6.34743 16.5005 6.45104 16.558 6.49709 16.7538C6.58918 17.0415 6.64674 17.3409 6.71581 17.6402C6.85395 18.3079 6.92302 18.9755 7.08419 19.6317C7.15326 19.8965 7.17628 20.1728 7.23384 20.4491C7.25686 20.5872 7.29141 20.7138 7.32594 20.8635C7.37199 21.0592 7.42955 21.2664 7.47559 21.4621C7.53315 21.6808 7.5792 21.9111 7.63676 22.1298C7.70583 22.2564 7.6828 22.383 7.60222 22.5327ZM5.90998 19.8735C6.04812 19.908 6.17475 19.9195 6.3129 19.862C6.3129 19.8159 6.32441 19.7814 6.32441 19.7468C6.27836 19.39 6.23231 19.0216 6.17475 18.6762C6.16324 18.6187 6.12871 18.5726 6.08266 18.5036C5.96754 18.8029 5.86393 19.6202 5.90998 19.8735Z" fill="#DC30EB"/>
<path d="M23.3964 17.7549C23.2238 17.8585 23.0626 17.9506 22.8554 17.9851C22.7978 17.9391 22.7403 17.8815 22.6942 17.8355C22.6942 17.6858 22.6942 17.5362 22.6942 17.4095C22.464 17.2023 22.3028 17.1908 22.0956 17.352C21.8654 17.5362 21.6351 17.7434 21.5891 18.0542C21.5545 18.2729 21.5085 18.5032 21.52 18.7219C21.5315 19.3896 21.5545 20.0573 21.5891 20.725C21.6006 20.9667 21.6466 21.22 21.8538 21.4157C22.1071 21.6459 22.6021 21.738 22.8669 21.3696C22.9129 21.3121 22.9705 21.2315 22.9705 21.1739C22.9935 20.8631 23.0971 20.5523 23.0626 20.2299C23.0626 20.2069 23.0626 20.1954 23.0626 20.1724C23.028 20.0227 22.959 19.9537 22.8093 19.9191C22.7748 19.9076 22.7287 19.9191 22.6942 19.9191C22.6597 19.9191 22.6251 19.9076 22.5676 19.8961C22.5215 19.6544 22.5446 19.4241 22.5561 19.1593C22.7403 19.1133 22.936 19.1248 23.1086 19.1593C23.2698 19.1939 23.454 19.1939 23.6497 19.2169C23.6727 19.3666 23.6957 19.5162 23.7073 19.6659C23.7188 20.1148 23.7303 20.5638 23.7188 21.0012C23.7072 21.3696 23.6152 21.7265 23.4195 22.0373C23.2698 22.2791 23.0741 22.4402 22.7863 22.4863C22.6251 22.5208 22.4525 22.5899 22.2798 22.6014C21.9114 22.6244 21.6236 22.4632 21.3819 22.2215C21.0595 21.9107 20.8984 21.5193 20.8408 21.0933C20.7832 20.6904 20.7602 20.299 20.7832 19.8961C20.7947 19.7464 20.8063 19.6198 20.8178 19.4817C20.8178 19.4356 20.8293 19.3896 20.8293 19.332C20.7487 18.8485 20.8868 18.365 20.8408 17.893C20.8178 17.6628 20.8753 17.4441 20.9674 17.2369C21.0941 16.9376 21.2552 16.6728 21.4855 16.4541C21.7848 16.1893 22.1416 16.0972 22.5215 16.2123C22.7172 16.2699 22.9129 16.3274 23.0626 16.4656C23.3158 16.7073 23.454 17.0066 23.454 17.3635C23.3964 17.5131 23.3964 17.6283 23.3964 17.7549Z" fill="#DC30EB"/>
<path d="M38.995 17.0297C38.995 16.8455 38.995 16.6613 38.995 16.5001C39.0526 16.3505 39.1677 16.3159 39.3173 16.339C39.5936 16.408 39.8699 16.385 40.1462 16.339C40.411 16.2929 40.6757 16.3505 40.9405 16.4426C41.1823 16.5347 41.3319 16.7189 41.3895 16.9721C41.4586 17.2944 41.5276 17.6053 41.5852 17.9276C41.6197 18.1233 41.6427 18.3305 41.6773 18.5262C41.7003 18.6528 41.7118 18.768 41.7348 18.8831C41.8039 19.286 41.8384 19.6774 41.7348 20.0688C41.6543 20.3796 41.6888 20.702 41.6888 21.0128C41.6888 21.3466 41.5967 21.6574 41.4355 21.9452C41.3549 22.0949 41.2398 22.21 41.1132 22.3251C41.0096 22.4287 40.883 22.4633 40.7218 22.4748C40.2728 22.4978 39.8354 22.5438 39.3864 22.5669C39.2713 22.5784 39.1677 22.6014 39.0411 22.5093C38.972 22.3366 38.949 22.1409 39.0986 21.9798C39.2253 21.8186 39.2713 21.6344 39.2598 21.4387C39.2483 20.8977 39.2368 20.3451 39.2253 19.804C39.2022 19.0442 39.1677 18.2845 39.1447 17.5247C39.1447 17.3175 39.0986 17.1678 38.995 17.0297ZM40.6988 21.715C40.9175 21.5653 41.0211 21.3351 40.9981 21.0473C40.9866 20.748 40.9635 20.4602 40.9866 20.1609C41.0096 19.7465 40.9751 19.3436 41.0096 18.9291C41.0441 18.4571 40.9175 18.0082 40.7678 17.5822C40.7218 17.4441 40.6412 17.352 40.5146 17.306C40.457 17.2829 40.3995 17.2484 40.3649 17.2254C40.2268 17.2254 40.1232 17.2254 40.0311 17.2254C39.916 17.2944 39.8814 17.375 39.8929 17.4671C39.8929 17.7204 39.9045 17.9852 39.9045 18.2384C39.916 18.4571 39.9505 18.6874 39.9505 18.9061C39.962 19.5162 39.9505 20.1379 39.9505 20.748C39.9505 20.8977 39.9275 21.0243 39.916 21.1624C39.9045 21.3351 39.9045 21.5193 40.0656 21.6459C40.2613 21.6805 40.4455 21.8071 40.6988 21.715Z" fill="#DC30EB"/>
<path d="M18.4468 18.8715C18.7231 18.883 18.9764 18.8946 19.2527 18.9061C19.2872 19.1478 19.2642 19.3781 19.2757 19.6083C19.1951 19.7234 19.103 19.7234 18.9879 19.7349C18.8728 19.7464 18.7692 19.7349 18.6541 19.7464C18.4699 19.7695 18.3663 19.8615 18.3317 20.0342C18.3202 20.1033 18.3202 20.1724 18.3202 20.2299C18.3202 20.5753 18.3317 20.9206 18.3317 21.266C18.3317 21.4041 18.3778 21.4962 18.4814 21.5768C18.6886 21.5998 18.9073 21.6229 19.126 21.6459C19.3333 21.6574 19.552 21.6689 19.7707 21.6689C19.8168 21.9452 19.8283 22.1985 19.7131 22.4517C19.4254 22.4978 19.126 22.5438 18.8267 22.5323C18.5274 22.5208 18.2281 22.5323 17.9403 22.5438C17.7907 22.5438 17.618 22.5438 17.4914 22.3942C17.4453 22.1985 17.4223 21.9797 17.5259 21.784C17.6295 21.5768 17.5835 21.3351 17.5489 21.1279C17.5259 20.9552 17.5144 20.7825 17.5489 20.6098C17.5719 20.4947 17.5489 20.3911 17.5604 20.276C17.5719 20.0918 17.595 19.8846 17.6065 19.7004C17.618 19.5853 17.618 19.4817 17.6065 19.3665C17.5604 19.0787 17.5835 18.8025 17.595 18.5147C17.618 18.0427 17.595 17.5707 17.595 17.0642C17.5374 17.0296 17.4568 16.9721 17.4108 16.926C17.3762 16.7188 17.3647 16.5346 17.4914 16.385C17.6756 16.3389 17.8828 16.3619 18.067 16.3735C18.159 16.3735 18.2511 16.385 18.3432 16.385C18.4123 16.385 18.4814 16.385 18.5274 16.385C18.6886 16.385 18.8613 16.385 19.0224 16.3735C19.2296 16.3504 19.4369 16.3619 19.6441 16.431C19.7016 16.6613 19.6671 16.903 19.6556 17.1448C19.575 17.2253 19.4944 17.2368 19.3908 17.2253C19.1836 17.2138 18.9649 17.2023 18.7461 17.2138C18.6656 17.2138 18.5965 17.2484 18.4929 17.2829C18.4699 17.375 18.4238 17.4556 18.4238 17.5477C18.4008 17.916 18.3893 18.2729 18.3778 18.6298C18.3663 18.6758 18.3547 18.7909 18.4468 18.8715Z" fill="#DC30EB"/>
<path d="M14.4515 17.3639C14.3019 17.3869 14.1522 17.3984 14.0141 17.433C13.8414 17.4675 13.6572 17.479 13.4845 17.433C13.2543 17.3869 13.0126 17.3869 12.7708 17.3984C12.437 17.4099 12.2988 17.5135 12.2758 17.7553C12.2643 17.8934 12.2643 18.0201 12.2643 18.1697C12.2643 19.1137 12.2643 20.0692 12.2758 21.0016C12.2758 21.393 12.2988 21.7729 12.3103 22.1758C12.3103 22.2219 12.3103 22.2679 12.3103 22.314C12.2988 22.4636 12.1952 22.5442 12.0225 22.5442C11.8729 22.5442 11.7002 22.5442 11.5505 22.5442C11.3894 22.5327 11.2743 22.4291 11.2743 22.2909C11.2743 22.1758 11.3088 22.0837 11.3779 21.9916C11.4815 21.8535 11.493 21.7038 11.493 21.5542C11.4815 21.0592 11.516 20.5527 11.4584 20.0692C11.3779 19.4015 11.3894 18.7453 11.3779 18.0891C11.3779 17.9625 11.3548 17.8474 11.3318 17.7323C11.3088 17.6287 11.2167 17.5826 11.1016 17.5596C10.8253 17.5135 10.5605 17.502 10.2842 17.5711C10.1806 17.5941 10.1231 17.6517 10.0885 17.7207C10.0655 17.7783 10.054 17.8474 10.0425 17.8934C10.031 18.0891 10.0195 18.2848 10.0195 18.4805C10.0195 19.4705 10.0195 20.4606 10.0195 21.4506C10.0195 21.6233 10.0655 21.8075 10.0885 21.9801C10.1001 22.0837 10.1346 22.1873 10.1346 22.2909C10.1346 22.4406 9.98493 22.5327 9.78923 22.5442C9.63958 22.5557 9.4669 22.5557 9.31725 22.5442C9.06399 22.5327 8.97189 22.4406 9.01793 22.2449C9.04096 22.1413 9.07549 22.0377 9.13305 21.9456C9.22515 21.7959 9.24817 21.6578 9.24817 21.4966C9.23666 20.5296 9.24818 19.5742 9.22515 18.6187C9.21364 18.3194 9.15608 18.0201 9.11004 17.7207C9.08701 17.5826 8.96038 17.502 8.7877 17.502C8.63804 17.4905 8.46537 17.502 8.31571 17.502C8.17757 17.502 8.03943 17.4905 7.90129 17.4905C7.79768 17.479 7.7171 17.4099 7.70559 17.3409C7.69408 17.2488 7.68256 17.1682 7.68256 17.0761C7.67105 16.6271 7.7171 16.5926 8.31571 16.5926C8.71863 16.5926 9.09852 16.5811 9.50143 16.535C9.73167 16.5005 9.97342 16.512 10.2152 16.512C10.7908 16.5005 11.3664 16.5005 11.9304 16.5005C12.4024 16.5005 12.8859 16.5005 13.3464 16.5465C13.4961 16.5581 13.6572 16.5465 13.8184 16.5465C13.9565 16.5465 14.0947 16.535 14.2328 16.5235C14.3249 16.5235 14.4285 16.5926 14.44 16.6617C14.463 16.8574 14.4861 17.0531 14.4976 17.2488C14.5091 17.2718 14.4861 17.3063 14.4515 17.3639Z" fill="#DC30EB"/>
<path d="M14.4973 18.1693C14.5088 18.2384 14.5549 18.3075 14.5319 18.3535C14.4052 18.8255 14.4628 19.309 14.4513 19.781C14.4513 20.1954 14.4513 20.5868 14.4513 21.0013C14.4513 21.197 14.4858 21.3927 14.5779 21.5769C14.624 21.669 14.7161 21.7265 14.8427 21.7265C15.2571 21.738 15.6715 21.7956 16.0745 21.6574C16.132 21.6344 16.1896 21.6459 16.2471 21.6344C16.3853 21.6344 16.5349 21.715 16.5579 21.8071C16.604 21.9683 16.604 22.1409 16.5464 22.2906C16.5004 22.4172 16.3853 22.4863 16.2011 22.4978C16.0975 22.5093 16.0054 22.5093 15.9018 22.5093C15.3492 22.5093 14.7966 22.5093 14.2441 22.5093C14.1405 22.5093 14.0484 22.4978 13.9448 22.4863C13.7951 22.4633 13.657 22.3597 13.6454 22.2445C13.6339 22.1409 13.6455 22.0373 13.6339 21.9337C13.6224 21.4848 13.5994 21.0358 13.5879 20.5868C13.5879 20.23 13.5994 19.8616 13.6109 19.5162C13.6224 19.1363 13.6224 18.768 13.6224 18.3996C13.6224 18.3881 13.6224 18.3651 13.6224 18.3535C13.6339 18.2499 13.7491 18.1578 13.8757 18.1348C14.0829 18.1233 14.2556 18.1233 14.4973 18.1693Z" fill="#DC30EB"/>
</svg>
